<svg width="46" height="46" viewBox="0 0 46 46" fill="none" xmlns="http://www.w3.org/2000/svg">
<g clip-path="url(#clip0_743_845)">
<path d="M0 7.7251H6.50274V29.0154H0V7.7251Z" fill="#432381"/>
<path d="M33.5963 0L28.4014 5.92509H34.7117L37.1154 3.16115L39.5612 5.92509H45.8712L40.6346 0H33.5963Z" fill="#432381"/>
<path d="M43.8464 40.2583L43.2549 40.9929H43.9731L44.2467 40.6186L44.5252 40.9929H45.2436L44.6473 40.2583H43.8464Z" fill="#9B9DA0"/>
<path d="M34.7423 23.5375V20.8833H44.704V15.8147H34.7423V13.1605H45.8717V7.70386H29.086C29.1137 7.73594 29.1439 7.7692 29.1709 7.80011C30.7866 9.74072 31.6744 12.1927 31.6789 14.727C31.6789 19.0871 29.7867 21.6181 28.1984 22.9729C26.179 24.6968 23.3875 25.6075 20.1256 25.6075H19.561V28.9941H45.8717V23.5374L34.7423 23.5375Z" fill="#432381"/>
<path d="M28.4019 14.7276C28.4003 14.2138 28.3459 13.7015 28.2395 13.199C27.6633 10.4405 25.4749 7.45215 20.6573 7.45215H9.77979V28.9936H16.2831V22.301H20.1255C24.3585 22.301 27.5085 20.4593 28.2395 16.5578C28.3504 15.954 28.4048 15.3411 28.4019 14.7271M18.7954 17.2317H16.2827V12.9088H19.1795C20.7755 12.9088 22.254 13.0284 22.254 14.9661C22.2542 17.1136 20.4805 17.2322 18.7954 17.2322V17.2317Z" fill="#432381"/>
<path d="M0 32.8369H1.37294L2.9102 37.2367H2.92621L4.42415 32.8369H5.78118V38.4567H4.8532V34.1198H4.83719L3.29282 38.4566H2.48899L0.944412 34.1198H0.928403V38.4566H0.000424074L0 32.8369Z" fill="#9B9DA0"/>
<path d="M6.95215 32.8367H7.92731V38.4564H6.95215V32.8367Z" fill="#9B9DA0"/>
<path d="M9.08154 32.8369H10.1117L12.6554 36.9773H12.6705V32.8369H13.599V38.4567H12.5688L10.0331 34.3242H10.0103V38.4567H9.08154V32.8369Z" fill="#9B9DA0"/>
<path d="M14.7534 32.8369H18.7637V33.6871H15.7288V35.1591H18.5372V35.9613H15.7288V37.6062H18.8185V38.4564H14.7534V32.8369Z" fill="#9B9DA0"/>
<path d="M19.6372 32.8369H22.2983C22.9123 32.8369 23.3724 32.9706 23.6788 33.238C23.9862 33.5065 24.1396 33.8791 24.1392 34.3557C24.1464 34.5832 24.1067 34.8098 24.0226 35.021C23.9569 35.1778 23.8643 35.3217 23.7489 35.446C23.6608 35.5415 23.5564 35.6203 23.4406 35.6785C23.3394 35.7253 23.2649 35.757 23.2185 35.7724V35.7886C23.3116 35.8015 23.4023 35.8279 23.488 35.8668C23.5908 35.914 23.6826 35.9826 23.7573 36.068C23.8478 36.1729 23.9178 36.2943 23.9634 36.4256C24.0228 36.603 24.0505 36.7897 24.0452 36.9769C24.0425 37.2789 24.0674 37.5806 24.1195 37.8781C24.1436 38.0882 24.2232 38.288 24.3499 38.4566H23.3044C23.2311 38.3347 23.1869 38.1973 23.1751 38.0553C23.1627 37.9088 23.1557 37.7665 23.1557 37.6302C23.1585 37.4075 23.1429 37.1849 23.1093 36.9648C23.0859 36.7994 23.0272 36.641 22.9372 36.5007C22.8544 36.3772 22.736 36.2823 22.598 36.2288C22.4216 36.1662 22.2353 36.1372 22.0485 36.1432H20.613V38.4569H19.6376L19.6372 32.8369ZM20.6126 35.395H22.2118C22.5243 35.395 22.7611 35.3203 22.9221 35.1709C23.0834 35.0212 23.1637 34.7966 23.1637 34.4971C23.169 34.3478 23.1425 34.1991 23.0861 34.061C23.0397 33.9549 22.9654 33.8637 22.8714 33.797C22.7774 33.733 22.6709 33.6899 22.5591 33.6708C22.4394 33.6502 22.3183 33.6399 22.1969 33.6401H20.6126V35.395Z" fill="#9B9DA0"/>
<path d="M26.7681 32.8369H27.8053L29.9509 38.4566H28.9057L28.3829 36.9691H26.1597L25.6369 38.4566H24.6304L26.7681 32.8369ZM26.425 36.2213H28.1258L27.2916 33.8042H27.2679L26.425 36.2213Z" fill="#9B9DA0"/>
<path d="M35.0304 36.3157C35.0131 36.6301 34.942 36.939 34.8203 37.229C34.7071 37.4972 34.5426 37.7402 34.3363 37.9444C34.1302 38.1461 33.8862 38.3042 33.6187 38.4095C33.3298 38.522 33.023 38.5806 32.7134 38.5824L32.4635 38.9129V38.9292C32.4987 38.9173 32.5354 38.9104 32.5725 38.9086C32.6149 38.9062 32.6637 38.9052 32.7209 38.9052C32.8001 38.9056 32.8789 38.9173 32.9548 38.9402C33.0308 38.9632 33.1022 38.9994 33.1659 39.0471C33.2296 39.0962 33.2825 39.1581 33.3212 39.229C33.3651 39.3082 33.387 39.398 33.3848 39.4887C33.3893 39.6075 33.3595 39.7251 33.2989 39.827C33.2428 39.9146 33.168 39.9885 33.0801 40.0434C32.9874 40.0999 32.8857 40.14 32.7795 40.1618C32.6679 40.185 32.5542 40.1967 32.4403 40.1968C32.3016 40.1951 32.1633 40.182 32.0268 40.1576C31.8907 40.1378 31.7588 40.0952 31.6367 40.0316L31.7768 39.7153C31.8606 39.7418 31.9432 39.7698 32.0269 39.7988C32.1099 39.8271 32.1969 39.8416 32.2845 39.8416C32.3393 39.8416 32.394 39.8377 32.4482 39.8298C32.5022 39.8231 32.5548 39.8073 32.6035 39.783C32.6493 39.7608 32.6884 39.7267 32.7168 39.6841C32.7476 39.6348 32.7626 39.577 32.7598 39.5188C32.7625 39.4747 32.7534 39.4307 32.7335 39.3913C32.7136 39.352 32.6836 39.3187 32.6467 39.2949C32.5742 39.2456 32.4885 39.2195 32.401 39.2201C32.2945 39.2179 32.1893 39.2453 32.0971 39.2992L31.9254 39.1495L32.3544 38.5756C32.0145 38.5466 31.6843 38.4466 31.3849 38.2818C31.0854 38.1171 30.8232 37.8913 30.615 37.6188C30.4088 37.3483 30.2516 37.0431 30.1506 36.7174C29.9293 35.9987 29.9372 35.2281 30.1733 34.5142C30.2882 34.1711 30.4671 33.8533 30.7004 33.5781C30.9321 33.3081 31.2179 33.0906 31.5389 32.9401C31.8901 32.7786 32.2725 32.698 32.6584 32.7042C32.957 32.7023 33.2543 32.7459 33.54 32.8336C33.8039 32.9141 34.051 33.0422 34.2695 33.2118C34.4787 33.3753 34.6526 33.5802 34.7805 33.8139C34.9151 34.0645 34.9976 34.3402 35.0228 34.6241H34.0474C34.0079 34.4685 33.9504 34.3182 33.8761 34.1762C33.7302 33.9004 33.486 33.6906 33.1929 33.5892C33.0205 33.5316 32.8397 33.5039 32.6581 33.5073C32.3909 33.5 32.1263 33.5622 31.8898 33.6879C31.6784 33.8044 31.4977 33.9704 31.363 34.1719C31.2243 34.3823 31.1228 34.6155 31.0633 34.861C30.9324 35.3774 30.9324 35.9187 31.0633 36.4351C31.123 36.6803 31.2244 36.9133 31.363 37.1235C31.4977 37.325 31.6783 37.4909 31.8898 37.6073C32.1262 37.7334 32.3908 37.796 32.6581 37.7891C32.8565 37.7931 33.0535 37.7541 33.2357 37.6748C33.3989 37.6011 33.5451 37.4937 33.6649 37.3598C33.7867 37.2229 33.882 37.0643 33.9459 36.8921C34.0149 36.7071 34.0595 36.5138 34.0786 36.3171L35.0304 36.3157Z" fill="#9B9DA0"/>
<path d="M37.4028 32.8368H38.4404L40.5854 38.4565H39.5398L39.0173 36.969H36.7939L36.2711 38.4565H35.2646L37.4028 32.8368ZM39.306 31.2624C39.2866 31.383 39.2566 31.5016 39.2165 31.6169C39.1799 31.7219 39.1227 31.8184 39.0484 31.9007C38.9808 31.9838 38.8958 32.051 38.7995 32.0974C38.6864 32.1471 38.5638 32.1712 38.4404 32.1679C38.3451 32.1672 38.2504 32.1528 38.1592 32.1252C38.0585 32.0952 37.9595 32.0595 37.8628 32.0182C37.7689 31.9758 37.6725 31.9392 37.5742 31.9084C37.4952 31.8862 37.4136 31.8753 37.3317 31.8763C37.291 31.8741 37.2502 31.8802 37.2119 31.8944C37.1737 31.9086 37.1386 31.9306 37.1091 31.9589C37.0481 32.0255 37.0087 32.1093 36.996 32.1991H36.5508C36.5684 32.0937 36.5973 31.9906 36.6367 31.8915C36.6775 31.7885 36.7327 31.6919 36.8006 31.6046C36.8671 31.5188 36.9494 31.4467 37.0429 31.3923C37.1399 31.3361 37.2503 31.3075 37.3622 31.3098C37.4527 31.3086 37.543 31.3178 37.6315 31.337C37.7556 31.3703 37.8768 31.4136 37.9939 31.4666C38.1035 31.5144 38.1931 31.5491 38.2639 31.573C38.333 31.5967 38.4056 31.6088 38.4786 31.6087C38.5262 31.612 38.5739 31.6053 38.6188 31.5891C38.6638 31.5729 38.7048 31.5474 38.7395 31.5144C38.8037 31.4432 38.8479 31.3561 38.8678 31.262L39.306 31.2624ZM37.0591 36.2212H38.7598L37.9254 33.8041H37.9019L37.0591 36.2212Z" fill="#9B9DA0"/>
<path d="M43.3315 32.7035C43.7174 32.6968 44.1 32.7772 44.4512 32.9388C44.7723 33.0889 45.058 33.3061 45.2896 33.576C45.523 33.8515 45.7019 34.1695 45.8165 34.5129C46.061 35.251 46.061 36.0493 45.8165 36.7873C45.7019 37.1306 45.5231 37.4484 45.2896 37.7235C45.0584 37.9929 44.7725 38.2091 44.4512 38.3574C44.0974 38.5103 43.7164 38.5892 43.3315 38.5892C42.9465 38.5892 42.5656 38.5103 42.2117 38.3574C41.8904 38.2089 41.6042 37.9928 41.3726 37.7235C41.1397 37.4481 40.9611 37.1303 40.8464 36.7873C40.602 36.0493 40.602 35.251 40.8464 34.5129C40.9612 34.1697 41.1398 33.8518 41.3726 33.576C41.6046 33.3063 41.8906 33.0891 42.2117 32.9388C42.5629 32.7771 42.9455 32.6967 43.3315 32.7035ZM43.3315 33.5057C43.0642 33.4987 42.7997 33.5609 42.563 33.6863C42.3514 33.8028 42.1707 33.969 42.0362 34.1709C41.8973 34.3811 41.7956 34.6142 41.7359 34.8596C41.6063 35.3761 41.6063 35.9171 41.7359 36.4337C41.7958 36.6789 41.8975 36.9118 42.0365 37.1219C42.1709 37.3238 42.3516 37.4901 42.5633 37.6067C42.8024 37.7254 43.0654 37.7872 43.3319 37.7872C43.5984 37.7872 43.8614 37.7254 44.1005 37.6067C44.3119 37.4896 44.4925 37.3234 44.6274 37.1219C44.7658 36.9115 44.8672 36.6787 44.9272 36.4337C45.0576 35.9172 45.0576 35.376 44.9272 34.8596C44.8672 34.6144 44.7658 34.3815 44.6274 34.1711C44.4925 33.9696 44.3119 33.8035 44.1005 33.6865C43.8637 33.5611 43.5989 33.4989 43.3315 33.5059V33.5057Z" fill="#9B9DA0"/>
<path d="M0.000954165 41.3797H1.10355L2.33824 44.913H2.35085L3.5531 41.3796H4.6435V45.893H3.89787V42.4103H3.88547L2.64505 45.8927H1.99834L0.757925 42.4103H0.745309V45.8927H0L0.000954165 41.3797Z" fill="#9B9DA0"/>
<path d="M10.3447 41.3801H12.482C12.9742 41.3801 13.3439 41.4876 13.5909 41.7025C13.7152 41.8146 13.8128 41.9534 13.8767 42.1087C13.9406 42.264 13.9691 42.4318 13.9601 42.5997C13.9662 42.7824 13.9341 42.9643 13.8659 43.1336C13.8133 43.2597 13.7393 43.3755 13.6472 43.4758C13.576 43.5521 13.4919 43.615 13.3989 43.6615C13.341 43.6903 13.2815 43.7156 13.2206 43.7371V43.7498C13.2953 43.7607 13.3682 43.7823 13.4369 43.814C13.5195 43.8515 13.5933 43.9065 13.6531 43.9752C13.7261 44.0596 13.7823 44.1573 13.8189 44.263C13.8672 44.4052 13.8896 44.555 13.8852 44.7052C13.8831 44.9478 13.9029 45.1901 13.9442 45.4291C13.9642 45.5976 14.028 45.7578 14.1292 45.8935H13.2897C13.2311 45.7953 13.1957 45.6849 13.1862 45.5708C13.176 45.4529 13.1709 45.3392 13.171 45.2296C13.173 45.0509 13.1603 44.8724 13.133 44.6958C13.1143 44.5628 13.0673 44.4353 12.9952 44.3224C12.9283 44.2235 12.8332 44.1474 12.7225 44.1042C12.5808 44.0536 12.4311 44.03 12.2808 44.0347H11.1284V45.8935H10.3449L10.3447 41.3801ZM11.1282 43.4341H12.413C12.6186 43.4489 12.8221 43.3845 12.9826 43.2541C13.0511 43.183 13.1038 43.0981 13.1373 43.0049C13.1708 42.9117 13.1843 42.8123 13.1769 42.7135C13.181 42.5935 13.1598 42.474 13.1147 42.3629C13.0773 42.2777 13.0177 42.2044 12.9422 42.1507C12.8666 42.0995 12.7811 42.0651 12.6913 42.0496C12.5952 42.033 12.4979 42.0244 12.4003 42.0242H11.1281L11.1282 43.4341Z" fill="#9B9DA0"/>
<path d="M14.7555 41.3801H16.8926C17.3849 41.3801 17.7545 41.4876 18.0015 41.7025C18.1258 41.8146 18.2235 41.9534 18.2874 42.1087C18.3514 42.264 18.3798 42.4318 18.3708 42.5997C18.3769 42.7824 18.3448 42.9643 18.2766 43.1336C18.224 43.2597 18.15 43.3755 18.0578 43.4758C17.9868 43.5518 17.9031 43.6147 17.8105 43.6615C17.7523 43.6902 17.6924 43.7155 17.6312 43.7371V43.7498C17.706 43.7607 17.7788 43.7823 17.8475 43.814C17.9302 43.8515 18.004 43.9065 18.0638 43.9752C18.1367 44.0596 18.193 44.1573 18.2296 44.263C18.2779 44.4052 18.3003 44.555 18.2959 44.7052C18.2938 44.9478 18.3136 45.1901 18.3548 45.4291C18.3749 45.5976 18.4388 45.7578 18.5399 45.8935H17.7003C17.6418 45.7953 17.6064 45.6849 17.5969 45.5708C17.5866 45.4529 17.5815 45.3392 17.5816 45.2296C17.5837 45.0509 17.571 44.8724 17.5437 44.6958C17.525 44.5628 17.478 44.4353 17.4058 44.3224C17.3389 44.2235 17.2439 44.1474 17.1333 44.1042C16.9915 44.0536 16.8417 44.03 16.6915 44.0347H15.5387V45.8935H14.7554L14.7555 41.3801ZM15.5388 43.4341H16.8237C17.0292 43.4488 17.2327 43.3845 17.3932 43.2541C17.4617 43.183 17.5145 43.0981 17.548 43.0049C17.5815 42.9117 17.595 42.8123 17.5875 42.7135C17.5917 42.5935 17.5705 42.474 17.5253 42.3629C17.4879 42.2777 17.4283 42.2044 17.3528 42.1507C17.2772 42.0995 17.1917 42.0651 17.102 42.0496C17.0059 42.033 16.9086 42.0244 16.8111 42.0242H15.5388V43.4341Z" fill="#9B9DA0"/>
<path d="M25.6699 41.38H27.5243C27.8304 41.3724 28.1344 41.4327 28.4148 41.5566C28.6549 41.6662 28.8656 41.8321 29.0292 42.0405C29.192 42.2543 29.3122 42.4978 29.3833 42.7577C29.537 43.333 29.537 43.9391 29.3833 44.5145C29.3122 44.7746 29.192 45.0185 29.0292 45.2326C28.8653 45.4405 28.6547 45.606 28.4148 45.7155C28.1345 45.8399 27.8305 45.9006 27.5243 45.8931H25.6699V41.38ZM26.4532 45.2478H27.2239C27.4791 45.2562 27.7333 45.2144 27.9726 45.1248C28.1522 45.0536 28.3101 44.9359 28.4303 44.7837C28.5431 44.6323 28.6203 44.457 28.6559 44.271C28.7344 43.8515 28.7344 43.4208 28.6559 43.0012C28.6204 42.8155 28.5432 42.6405 28.4303 42.4894C28.3106 42.3367 28.1526 42.2189 27.9726 42.1483C27.7336 42.0575 27.4792 42.0153 27.2239 42.0243H26.4532V45.2478Z" fill="#9B9DA0"/>
<path d="M36.6973 41.3794H37.4805V45.8922H36.6973V41.3794Z" fill="#9B9DA0"/>
<path d="M38.439 41.3799H40.4127C40.6787 41.3703 40.9437 41.4177 41.1903 41.5189C41.3697 41.5963 41.5285 41.7152 41.6539 41.8661C41.7597 42 41.8355 42.1556 41.8759 42.322C41.9136 42.4707 41.9336 42.6235 41.9356 42.777C41.9337 42.9293 41.9137 43.0808 41.8759 43.2283C41.8349 43.3935 41.7592 43.5478 41.6539 43.6809C41.529 43.8314 41.37 43.9493 41.1903 44.0244C40.9432 44.1237 40.6784 44.17 40.4127 44.1604H39.2221V45.893H38.439V41.3799ZM39.2221 43.5161H40.3685C40.4595 43.5156 40.5501 43.5027 40.6378 43.478C40.7294 43.4532 40.8157 43.4114 40.8922 43.3548C40.972 43.2953 41.0363 43.2173 41.0799 43.1274C41.1316 43.0157 41.1563 42.8932 41.1522 42.77C41.1561 42.6447 41.1346 42.5199 41.0892 42.4033C41.0526 42.3133 40.9943 42.234 40.9196 42.1726C40.8482 42.1156 40.7647 42.0758 40.6757 42.0563C40.5792 42.0346 40.4805 42.0241 40.3815 42.0249H39.2218L39.2221 43.5161Z" fill="#9B9DA0"/>
<path d="M42.6177 41.3799H45.8383V42.0622H43.4005V43.2447H45.6562V43.889H43.4005V45.2106H45.8813V45.8929H42.6177V41.3799Z" fill="#9B9DA0"/>
<path fill-rule="evenodd" clip-rule="evenodd" d="M7.48806 41.9169C8.23888 41.9169 8.84764 42.6869 8.84764 43.636C8.84764 44.5851 8.23888 45.3552 7.48806 45.3552C6.73724 45.3552 6.12837 44.5851 6.12837 43.636C6.12837 42.6869 6.73713 41.9169 7.48806 41.9169ZM7.48806 41.272C8.67154 41.272 9.6309 42.3308 9.6309 43.6356C9.6309 44.9404 8.67154 45.9992 7.48806 45.9992C6.30458 45.9992 5.34521 44.9404 5.34521 43.6356C5.34521 42.3308 6.30447 41.272 7.48795 41.272H7.48806Z" fill="#9B9DA0"/>
<path fill-rule="evenodd" clip-rule="evenodd" d="M21.0716 41.9169C21.8225 41.9169 22.4312 42.6869 22.4312 43.636C22.4312 44.5851 21.8225 45.3552 21.0716 45.3552C20.3206 45.3552 19.712 44.5851 19.712 43.636C19.712 42.6869 20.3207 41.9169 21.0716 41.9169ZM21.0716 41.272C22.255 41.272 23.2145 42.3308 23.2145 43.6356C23.2145 44.9404 22.255 45.9992 21.0716 45.9992C19.8881 45.9992 18.9287 44.9404 18.9287 43.6356C18.9287 42.3308 19.8882 41.272 21.0716 41.272Z" fill="#9B9DA0"/>
<path fill-rule="evenodd" clip-rule="evenodd" d="M32.098 41.9169C32.8488 41.9169 33.4576 42.6869 33.4576 43.636C33.4576 44.5851 32.8488 45.3552 32.098 45.3552C31.3472 45.3552 30.7383 44.5851 30.7383 43.636C30.7383 42.6869 31.3471 41.9169 32.098 41.9169ZM32.098 41.272C33.2814 41.272 34.2409 42.3308 34.2409 43.6356C34.2409 44.9404 33.2814 45.9992 32.098 45.9992C30.9146 45.9992 29.9551 44.9404 29.9551 43.6356C29.9551 42.3308 30.9145 41.272 32.098 41.272Z" fill="#9B9DA0"/>
</g>
<defs>
<clipPath id="clip0_743_845">
<rect width="46" height="46" fill="white"/>
</clipPath>
</defs>
</svg>
