<svg width="94" height="50" viewBox="0 0 94 50" fill="none" xmlns="http://www.w3.org/2000/svg">
<g clip-path="url(#clip0_743_885)">
<path d="M57.9664 5.42193C55.7995 6.94153 52.0493 7.35577 48.6967 7.71832L48.6762 7.76154C48.7107 9.70672 48.4954 11.6491 48.0365 13.5404C47.2223 16.8332 45.6396 19.8539 43.3376 22.5157C42.3419 23.6622 41.2461 24.7158 40.0631 25.6633V25.6746C45.0104 24.1146 50.9859 21.2022 54.8249 15.8078C58.6166 10.4793 58.2697 7.33595 57.9762 5.42193H57.9664ZM36.7675 12.4754C34.4958 15.3341 33.7245 19.5863 34.4107 25.4728C34.4627 26.0209 34.5254 26.4663 34.5739 26.7793L34.6007 26.7969C37.0764 25.5804 46.736 20.0338 46.6924 7.94916L46.6685 7.92936C42.0498 8.41796 38.8069 9.90569 36.7675 12.4754ZM59.3436 11.5131C58.63 13.4788 57.649 15.3355 56.428 17.0293C52.5307 22.4343 46.7424 25.4232 42.5762 26.9761C41.218 27.4867 39.9597 27.8683 38.8632 28.1615V28.1778C39.3974 28.2054 39.9252 28.2196 40.4446 28.2217H40.7127C43.2989 28.2111 45.6853 27.886 47.8381 27.2501C50.8536 26.3586 53.3618 24.878 55.2893 22.8506C58.1219 19.8737 59.5329 15.8998 59.3549 11.5131H59.3436Z" fill="url(#paint0_radial_743_885)"/>
<path d="M57.9833 5.42193C55.8157 6.94153 52.0655 7.35577 48.7128 7.71832L48.6931 7.76154C48.7269 9.70672 48.5116 11.6491 48.0534 13.5404C47.2385 16.8332 45.6558 19.8539 43.3545 22.5157C42.3587 23.6622 41.263 24.7158 40.08 25.6633V25.6746C45.0266 24.1146 51.0021 21.2022 54.8418 15.8078C58.6335 10.4793 58.2859 7.33595 57.9924 5.42193H57.9833ZM36.7844 12.4754C34.5127 15.3341 33.7407 19.5863 34.4276 25.4728C34.4796 26.0209 34.5416 26.4663 34.5901 26.7793L34.6169 26.7969C37.0926 25.5804 46.7522 20.0338 46.7086 7.94916L46.6854 7.92936C42.066 8.41796 38.8238 9.90569 36.7844 12.4754ZM59.3598 11.5131C58.6462 13.4788 57.6652 15.3355 56.4449 17.0293C52.5468 22.4343 46.7586 25.4232 42.5931 26.9761C41.2342 27.4867 39.9759 27.8683 38.8794 28.1615V28.1778C39.4143 28.2054 39.9414 28.2196 40.4607 28.2217H40.7289C43.3158 28.2111 45.7015 27.886 47.855 27.2501C50.8705 26.3586 53.378 24.878 55.3062 22.8506C58.1381 19.8737 59.5498 15.8998 59.3718 11.5131H59.3598Z" fill="url(#paint1_radial_743_885)"/>
<mask id="mask0_743_885" style="mask-type:luminance" maskUnits="userSpaceOnUse" x="-17" y="25" width="98" height="24">
<path d="M-16.9194 48.3425H80.5703V25.455H-16.9194V48.3425Z" fill="white"/>
</mask>
<g mask="url(#mask0_743_885)">
<path d="M21.4357 36.1482C20.7737 35.6926 19.44 35.1715 18.061 35.1715C16.6269 35.1715 15.7028 35.7814 15.7028 36.7361C15.7028 37.5791 16.4637 37.9665 17.7318 38.1236L18.9455 38.2786C21.1729 38.5786 22.4848 39.5218 22.4848 41.2677C22.4848 43.2758 20.6982 44.5745 17.842 44.5745C16.552 44.5745 14.8092 44.2638 13.4302 43.2203L14.2687 41.8669C15.055 42.4768 16.0992 42.9879 17.8504 42.9879C19.5707 42.9879 20.6296 42.4213 20.6296 41.3778C20.6296 40.6009 19.9465 40.1133 18.523 39.9355L17.31 39.7912C14.9653 39.4998 13.83 38.4343 13.83 36.8363C13.83 34.8147 15.4944 33.5956 18.0419 33.5956C19.6964 33.5956 21.2075 34.0349 22.222 34.7386L21.4357 36.1482Z" fill="#034EA2"/>
<path d="M33.4671 39.9323C33.4671 43.1169 31.1959 44.5706 28.6922 44.5706C26.1666 44.5706 23.9053 43.1169 23.9053 39.9323V33.8049H25.7145V39.7646C25.7145 41.917 26.9826 42.8717 28.6922 42.8717C30.4018 42.8717 31.6621 41.917 31.6621 39.7646V33.8049H33.4706L33.4671 39.9323Z" fill="#034EA2"/>
<path d="M44.1214 35.1235L37.6693 42.7067H44.221V44.353H35.2759V43.0344L41.8049 35.4661H35.4638V33.8049H44.1214V35.1235Z" fill="#034EA2"/>
<path d="M46.922 39.0788C46.922 41.1758 48.378 42.874 50.5277 42.874C52.6456 42.874 54.1235 41.2426 54.1235 39.0788C54.1235 36.9151 52.6456 35.2951 50.5277 35.2951C48.3448 35.2936 46.922 36.9805 46.922 39.0788ZM55.8219 44.3525H54.0133V42.9465C53.1861 43.9346 51.9625 44.5779 50.3193 44.5779C47.3748 44.5779 45.0781 42.2698 45.0781 39.0852C45.0781 35.9007 47.372 33.5912 50.3193 33.5912C51.9625 33.5912 53.1861 34.2359 54.0133 35.2339V33.8052H55.8219V44.3525Z" fill="#034EA2"/>
<path d="M67.8982 37.8017V44.3528H66.0897V38.3931C66.0897 36.4518 65.0314 35.3081 63.2073 35.3081C61.5196 35.3081 60.1074 36.4739 60.1074 38.4379V44.3528H58.3145V33.8047H60.1004V35.1809C60.9615 33.993 62.3179 33.5829 63.5316 33.5829C66.1116 33.5843 67.8982 35.2711 67.8982 37.8017Z" fill="#034EA2"/>
<path d="M71.3276 39.0789C71.3276 41.2868 72.9157 42.8741 75.0216 42.8741C77.1282 42.8741 78.7171 41.2868 78.7171 39.0789C78.7171 36.871 77.1176 35.2951 75.0216 35.2951C72.9263 35.2951 71.3276 36.8689 71.3276 39.0789ZM80.5701 39.0789C80.5701 42.208 78.1992 44.5715 75.0216 44.5715C71.8447 44.5715 69.4858 42.2073 69.4858 39.0789C69.4858 35.9505 71.8447 33.5856 75.0216 33.5856C78.1992 33.5856 80.5701 35.9491 80.5701 39.0789Z" fill="#034EA2"/>
</g>
<mask id="mask1_743_885" style="mask-type:luminance" maskUnits="userSpaceOnUse" x="-17" y="25" width="98" height="24">
<path d="M-16.9199 48.3425H80.5698V25.455H-16.9199V48.3425Z" fill="white"/>
</mask>
<g mask="url(#mask1_743_885)">
<path d="M21.4357 36.1482C20.7737 35.6926 19.44 35.1715 18.061 35.1715C16.6269 35.1715 15.7028 35.7814 15.7028 36.7361C15.7028 37.5791 16.4637 37.9665 17.7318 38.1236L18.9455 38.2786C21.1729 38.5786 22.4848 39.5218 22.4848 41.2677C22.4848 43.2758 20.6982 44.5745 17.842 44.5745C16.552 44.5745 14.8092 44.2638 13.4302 43.2203L14.2687 41.8669C15.055 42.4768 16.0992 42.9879 17.8504 42.9879C19.5707 42.9879 20.6296 42.4213 20.6296 41.3778C20.6296 40.6009 19.9465 40.1133 18.523 39.9355L17.31 39.7912C14.9653 39.4998 13.83 38.4343 13.83 36.8363C13.83 34.8147 15.4944 33.5956 18.0419 33.5956C19.6964 33.5956 21.2075 34.0349 22.222 34.7386L21.4357 36.1482Z" fill="#034EA2"/>
<path d="M33.4671 39.9323C33.4671 43.1169 31.1959 44.5706 28.6922 44.5706C26.1666 44.5706 23.9053 43.1169 23.9053 39.9323V33.8049H25.7145V39.7646C25.7145 41.917 26.9826 42.8717 28.6922 42.8717C30.4018 42.8717 31.6621 41.917 31.6621 39.7646V33.8049H33.4706L33.4671 39.9323Z" fill="#034EA2"/>
<path d="M44.1214 35.1235L37.6693 42.7067H44.221V44.353H35.2759V43.0344L41.8049 35.4661H35.4638V33.8049H44.1214V35.1235Z" fill="#034EA2"/>
<path d="M46.922 39.0788C46.922 41.1758 48.378 42.874 50.5277 42.874C52.6456 42.874 54.1235 41.2426 54.1235 39.0788C54.1235 36.9151 52.6456 35.2951 50.5277 35.2951C48.3448 35.2936 46.922 36.9805 46.922 39.0788ZM55.8219 44.3525H54.0133V42.9465C53.1861 43.9346 51.9625 44.5779 50.3193 44.5779C47.3748 44.5779 45.0781 42.2698 45.0781 39.0852C45.0781 35.9007 47.372 33.5912 50.3193 33.5912C51.9625 33.5912 53.1861 34.2359 54.0133 35.2339V33.8052H55.8219V44.3525Z" fill="#034EA2"/>
<path d="M67.8982 37.8017V44.3528H66.0897V38.3931C66.0897 36.4518 65.0314 35.3081 63.2073 35.3081C61.5196 35.3081 60.1074 36.4739 60.1074 38.4379V44.3528H58.3145V33.8047H60.1004V35.1809C60.9615 33.993 62.3179 33.5829 63.5316 33.5829C66.1116 33.5843 67.8982 35.2711 67.8982 37.8017Z" fill="#034EA2"/>
<path d="M71.3276 39.0789C71.3276 41.2868 72.9157 42.8741 75.0216 42.8741C77.1282 42.8741 78.7171 41.2868 78.7171 39.0789C78.7171 36.871 77.1176 35.2951 75.0216 35.2951C72.9263 35.2951 71.3276 36.8689 71.3276 39.0789ZM80.5701 39.0789C80.5701 42.208 78.1992 44.5715 75.0216 44.5715C71.8447 44.5715 69.4858 42.2073 69.4858 39.0789C69.4858 35.9505 71.8447 33.5856 75.0216 33.5856C78.1992 33.5856 80.5701 35.9491 80.5701 39.0789Z" fill="#034EA2"/>
</g>
</g>
<defs>
<radialGradient id="paint0_radial_743_885" cx="0" cy="0" r="1" gradientUnits="userSpaceOnUse" gradientTransform="translate(27.4318 16.9068) scale(36.9257 37.1549)">
<stop stop-color="#99CA45"/>
<stop offset="0.5" stop-color="#27B67D"/>
<stop offset="1" stop-color="#009368"/>
</radialGradient>
<radialGradient id="paint1_radial_743_885" cx="0" cy="0" r="1" gradientUnits="userSpaceOnUse" gradientTransform="translate(27.4483 16.9068) scale(36.9257 37.1549)">
<stop stop-color="#99CA45"/>
<stop offset="0.5" stop-color="#27B67D"/>
<stop offset="1" stop-color="#009368"/>
</radialGradient>
<clipPath id="clip0_743_885">
<rect width="94" height="50" fill="white"/>
</clipPath>
</defs>
</svg>
