<svg width="107" height="56" viewBox="0 0 107 56" fill="none" xmlns="http://www.w3.org/2000/svg">
<path d="M70.3939 8.57709C71.0791 8.34688 71.8024 8.23722 72.5249 8.22556C73.8992 8.21467 75.2719 8.39821 76.6081 8.71787C78.8588 9.21406 81.0311 10.012 83.1528 10.9033C87.582 12.815 91.8067 15.1964 95.77 17.9434C96.8441 18.7072 97.9166 19.4771 98.916 20.3373C99.3554 20.7557 99.798 21.2193 99.9566 21.8236C100.072 22.4271 99.8664 23.0983 99.3912 23.4988C98.9393 23.9437 98.2464 24.0627 97.6436 23.9281C97.0463 23.8457 96.5268 23.5237 95.9987 23.257C93.7829 22.1588 91.4893 21.2138 89.1258 20.4851C88.0782 20.1452 87.0111 19.8714 85.9448 19.5992C83.3262 19.0058 80.6554 18.61 77.9699 18.5291C76.8103 18.4544 75.6452 18.5034 74.4903 18.624C76.0325 21.0521 77.7754 23.3456 79.5985 25.5684C79.9757 26.0063 80.1017 26.6596 79.8691 27.1947C79.5067 27.9724 78.5524 28.4336 77.7241 28.1614C77.3321 28.0447 77.0685 27.7165 76.7939 27.4365C76.0683 26.5779 75.359 25.7037 74.694 24.7969C73.7911 23.6458 72.9636 22.438 72.129 21.2364C71.6842 20.5489 71.1911 19.8893 70.81 19.1637C66.5682 19.9593 62.5271 21.6089 58.748 23.6645C57.478 24.3785 56.2173 25.1126 55.0156 25.9394C54.157 26.4939 53.3668 27.1441 52.537 27.7391C52.1567 28.0377 51.641 28.0937 51.1744 28.0354C50.5615 27.8627 49.9953 27.3984 49.8623 26.7537C49.7542 26.4084 49.8141 26.035 49.951 25.7068C50.1159 25.3957 50.3733 25.1453 50.6409 24.9205C52.8776 23.0649 55.3322 21.4806 57.9003 20.1242C63.038 17.4573 68.6642 15.5884 74.4662 15.2276C75.7852 15.2244 77.1081 15.1747 78.4241 15.2867C81.1042 15.4601 83.7609 15.9229 86.3594 16.594C88.5052 17.1758 90.5934 17.9496 92.6567 18.7725C89.8351 17.1322 86.9466 15.5939 83.9344 14.3293C81.8765 13.4473 79.7595 12.6945 77.5865 12.1508C76.1321 11.8055 74.6419 11.5527 73.1424 11.6126C72.8819 11.6251 72.6276 11.6842 72.3771 11.7487C72.1158 11.8117 71.9245 12.0108 71.7083 12.1539C71.4104 12.5327 71.4516 13.06 71.5807 13.4955C71.7021 13.8478 71.8631 14.1869 72.0513 14.5089C72.1088 14.5945 72.1127 14.6987 72.129 14.7982C70.9982 14.8822 69.8829 15.1093 68.7785 15.3551C68.3811 14.5509 68.0047 13.7102 67.9347 12.8049C67.895 12.1135 67.8771 11.3972 68.1237 10.7392C68.4667 9.70249 69.3735 8.91619 70.3939 8.57709Z" fill="#F15E28"/>
<path d="M37.7994 35.1099C38.0685 35.0173 38.4069 35.0741 38.5811 35.316C38.7288 35.4746 38.7133 35.7041 38.7218 35.9055C38.7195 39.0421 38.7234 42.1788 38.7195 45.3162C38.732 45.5829 38.6169 45.8839 38.3548 45.9913C38.0857 46.0861 37.7403 46.0636 37.5436 45.8349C37.3958 45.6755 37.3771 45.4461 37.374 45.24C37.3748 42.1026 37.3732 38.9651 37.3748 35.8285C37.3662 35.5369 37.4922 35.1954 37.7994 35.1099Z" fill="#4C4C4C"/>
<path d="M54.9766 35.3252C55.2441 35.0529 55.6742 35.0179 56.0242 35.1292C56.3703 35.2482 56.6021 35.5725 56.7001 35.9131C57.1846 37.6156 57.6746 39.3165 58.1568 41.0198C58.4375 41.9546 58.6919 42.8972 58.9228 43.8461C59.2503 42.3839 59.7099 40.9568 60.1128 39.5148C60.4425 38.3498 60.7809 37.1871 61.1122 36.0228C61.1868 35.7646 61.2802 35.4916 61.4933 35.3135C61.879 34.9503 62.5798 34.9907 62.9049 35.4162C63.0985 35.6829 63.1709 36.0142 63.2144 36.3362C63.6904 39.2279 64.1811 42.1164 64.6595 45.0072C64.6836 45.2841 64.759 45.6162 64.5568 45.8472C64.3686 46.0821 64.017 46.0681 63.7588 45.9802C63.4936 45.8721 63.4368 45.5556 63.384 45.3075C62.9484 42.4819 62.4701 39.6626 62.0657 36.8332C61.921 37.6203 61.6768 38.384 61.4629 39.1548C60.8353 41.2826 60.2302 43.4183 59.5979 45.5454C59.4758 46.079 58.7416 46.2026 58.3683 45.8612C58.2579 45.7414 58.2143 45.5797 58.1653 45.4296C57.7523 44.0164 57.3448 42.6017 56.9303 41.1893C56.536 39.7396 56.0374 38.3171 55.7357 36.8441C55.3406 39.6253 54.8607 42.394 54.4368 45.1706C54.3917 45.4599 54.3435 45.8044 54.0651 45.9662C53.7905 46.0836 53.3916 46.0906 53.2119 45.8114C53.0447 45.5797 53.1046 45.2771 53.138 45.015C53.6334 42.0518 54.1257 39.0886 54.6204 36.1262C54.6764 35.8385 54.7604 35.5359 54.9766 35.3252Z" fill="#4C4C4C"/>
<path d="M86.9369 35.0958C87.3623 34.9426 87.8461 35.2902 87.8119 35.7467C87.8197 38.8834 87.8111 42.0208 87.8165 45.1582C87.8095 45.3861 87.8267 45.6536 87.6509 45.8294C87.367 46.1677 86.7184 46.1055 86.5418 45.6863C86.4726 45.5486 86.4711 45.3915 86.4679 45.2422C86.4672 42.1561 86.4695 39.0693 86.4672 35.9824C86.4384 35.6332 86.5333 35.1743 86.9369 35.0958Z" fill="#4C4C4C"/>
<path d="M66.8542 35.4574C67.362 35.3096 67.9337 35.7607 67.8746 36.2927C67.8761 36.8184 67.2843 37.2096 66.7982 37.03C66.3276 36.8962 66.0904 36.295 66.3323 35.8727C66.4326 35.665 66.6418 35.5305 66.8542 35.4574Z" fill="#4C4C4C"/>
<path d="M70.0806 35.9613C70.1342 35.4643 70.7899 35.2846 71.1593 35.5615C71.3677 35.707 71.4144 35.9815 71.4121 36.2195C71.4113 36.7732 71.4082 37.327 71.4136 37.8807C71.7193 37.88 72.0389 37.8574 72.3314 37.9655C72.7506 38.1576 72.7031 38.849 72.2754 39.0053C71.9915 39.0792 71.6944 39.0419 71.4051 39.0582C71.4136 41.1698 71.4152 43.2814 71.4051 45.3929C71.4253 45.8588 70.9252 46.1621 70.5037 46.019C70.2089 45.928 70.0479 45.6138 70.065 45.3183C70.0635 43.2324 70.0611 41.1465 70.0674 39.0606C69.7773 39.0365 69.4763 39.08 69.1963 38.9867C68.8222 38.7884 68.8043 38.1397 69.2017 37.9562C69.4794 37.8636 69.7773 37.8807 70.0666 37.8792C70.0736 37.2407 70.0394 36.599 70.0806 35.9613Z" fill="#4C4C4C"/>
<path d="M74.3144 35.9857C74.3494 35.4475 75.1147 35.2484 75.4561 35.6256C75.6436 35.8255 75.6451 36.114 75.6397 36.3715C75.6358 36.8754 75.6381 37.3794 75.6428 37.8842C75.9648 37.8826 76.3054 37.8531 76.6111 37.9791C76.944 38.1929 76.9409 38.7825 76.5823 38.9683C76.286 39.0982 75.9547 39.0422 75.642 39.0531C75.6304 41.1429 75.6428 43.2327 75.6358 45.3225C75.635 45.5091 75.5891 45.7051 75.4709 45.8529C75.1676 46.1445 74.5765 46.1111 74.3759 45.7152C74.2693 45.4671 74.3035 45.1895 74.2981 44.9274C74.2973 42.9698 74.3043 41.0122 74.295 39.0547C73.9528 39.036 73.5561 39.1239 73.2777 38.8696C73.0685 38.6432 73.1245 38.2995 73.2645 38.0522C73.5686 37.8492 73.9466 37.8849 74.295 37.8818C74.3136 37.2495 74.2755 36.6157 74.3144 35.9857Z" fill="#4C4C4C"/>
<path fill-rule="evenodd" clip-rule="evenodd" d="M13.369 35.403C13.0471 35.0126 12.4 34.9519 12.0119 35.277C11.8081 35.4497 11.6899 35.6978 11.595 35.942C11.0918 37.2856 10.5898 38.6297 10.0878 39.9738C9.47574 41.6127 8.86363 43.2516 8.24918 44.8899C8.24204 44.9105 8.23465 44.9314 8.22716 44.9527C8.13256 45.2208 8.02169 45.5351 8.20329 45.7866C8.5035 46.1949 9.25247 46.1001 9.40101 45.5969C9.49819 45.3213 9.59936 45.0469 9.70052 44.7725C9.91514 44.1904 10.1298 43.6083 10.3063 43.0148C10.5423 42.98 10.7807 42.9824 11.0189 42.9848C11.1166 42.9858 11.2144 42.9868 11.3119 42.9852C11.7531 42.9869 12.1942 42.986 12.6353 42.9851C13.3939 42.9835 14.1525 42.982 14.9113 42.9938C15.0535 43.4141 15.2041 43.8315 15.3547 44.249C15.471 44.5715 15.5874 44.8941 15.6999 45.2181C15.7176 45.2641 15.7343 45.3111 15.751 45.3583C15.8181 45.5476 15.8864 45.7404 16.0289 45.8854C16.3089 46.1265 16.7709 46.0721 17.0291 45.8247C17.2419 45.5767 17.1251 45.2517 17.027 44.9785C17.0189 44.9561 17.011 44.9341 17.0034 44.9124C15.9418 42.0589 14.8794 39.2054 13.8162 36.3518C13.8028 36.3153 13.7896 36.2787 13.7763 36.2419C13.6701 35.9484 13.5626 35.6511 13.369 35.403ZM13.7407 39.7269C13.3605 38.667 12.9803 37.6071 12.617 36.5417C12.2867 37.5543 11.9253 38.5562 11.5639 39.5581C11.2946 40.3045 11.0254 41.0508 10.769 41.8016C11.3679 41.8016 11.9666 41.8018 12.5652 41.802C13.1639 41.8022 13.7626 41.8024 14.3614 41.8024C14.4859 41.8421 14.4571 41.7199 14.4299 41.6601C14.2027 41.0149 13.9717 40.3709 13.7407 39.7269Z" fill="#4C4C4C"/>
<path d="M18.4142 38.4088C18.4033 37.7882 19.332 37.5727 19.6376 38.079C19.8274 38.4298 19.7201 38.8529 19.7566 39.2355C20.0032 38.7533 20.378 38.3357 20.8353 38.0456C21.162 37.8465 21.5773 37.7221 21.9498 37.8605C22.3504 38.0285 22.404 38.6289 22.0945 38.9058C21.8946 39.1103 21.603 39.1609 21.3448 39.2542C20.8618 39.4098 20.3897 39.6742 20.1035 40.1066C19.8398 40.5188 19.7605 41.0197 19.7582 41.5019C19.7558 42.7478 19.7582 43.9938 19.7574 45.2405C19.7558 45.4777 19.7286 45.7546 19.5178 45.9054C19.1189 46.2453 18.3886 45.9537 18.4127 45.4015C18.4041 43.0706 18.401 40.7397 18.4142 38.4088Z" fill="#4C4C4C"/>
<path d="M25.6676 37.8243C26.2533 37.773 26.8584 37.8072 27.4168 38.0055C27.7014 38.1136 27.9853 38.2645 28.1735 38.511C28.4045 38.8144 28.186 39.3285 27.8018 39.3603C27.4891 39.386 27.2138 39.2095 26.9276 39.1154C26.2432 38.8673 25.4172 38.9318 24.8362 39.3938C24.2934 39.8068 24.0072 40.4686 23.8827 41.1227C23.7731 41.7908 23.7855 42.4884 23.9815 43.1402C24.1588 43.7204 24.508 44.2671 25.0322 44.5906C25.5214 44.8823 26.1211 44.9173 26.6717 44.8216C27.0116 44.7633 27.3056 44.565 27.6376 44.4825C27.8935 44.4164 28.2334 44.5564 28.2676 44.8442C28.3298 45.0954 28.2023 45.3575 27.9962 45.5006C27.4035 45.9221 26.6554 46.0691 25.9383 46.0404C24.9739 46.0155 23.9947 45.6025 23.3888 44.8364C22.6772 43.9825 22.4283 42.833 22.4649 41.7433C22.4874 40.6701 22.8374 39.5641 23.6066 38.7903C24.1495 38.2349 24.8977 37.9021 25.6676 37.8243Z" fill="#4C4C4C"/>
<path d="M48.9872 37.8203C49.2796 37.7448 49.6374 37.8537 49.7642 38.1462C49.8948 38.4915 49.8139 38.8702 49.8365 39.2288C50.2316 38.5389 50.8911 37.8063 51.7599 37.8016C52.1697 37.783 52.4777 38.2053 52.3634 38.5934C52.2887 38.9612 51.903 39.1004 51.5895 39.2062C51.0428 39.3664 50.4766 39.6332 50.1717 40.138C49.8987 40.5657 49.8412 41.086 49.8381 41.5822C49.8373 42.8025 49.8373 44.022 49.8388 45.2415C49.8295 45.4211 49.8334 45.621 49.7237 45.7742C49.4966 46.1172 48.9413 46.1328 48.6644 45.8458C48.5128 45.6848 48.4949 45.4523 48.4902 45.2438C48.4926 43.0133 48.491 40.7819 48.4918 38.5506C48.4739 38.2333 48.6411 37.8693 48.9872 37.8203Z" fill="#4C4C4C"/>
<path d="M66.8753 37.8139C67.1101 37.7844 67.3956 37.7921 67.5542 37.9983C67.7191 38.1647 67.7354 38.4097 67.7362 38.6313C67.7315 40.8603 67.737 43.0893 67.7331 45.3191C67.7448 45.5867 67.6281 45.8768 67.3676 45.9857C67.1031 46.0844 66.743 46.0751 66.5587 45.8332C66.4039 45.6761 66.3892 45.4436 66.3845 45.2367C66.3845 43.1889 66.3845 41.1403 66.3845 39.0925C66.3861 38.8343 66.3689 38.5746 66.4055 38.3187C66.4405 38.0737 66.6342 37.866 66.8753 37.8139Z" fill="#4C4C4C"/>
<path fill-rule="evenodd" clip-rule="evenodd" d="M32.7783 37.8132C31.8256 37.7261 30.841 38.0527 30.1426 38.7099C29.4481 39.3826 29.0405 40.3121 28.9278 41.2656C28.7909 42.4042 28.9744 43.6237 29.6277 44.5857C30.1379 45.358 30.9973 45.8822 31.9151 45.9966C33.0342 46.1397 34.2397 45.9444 35.1707 45.2803C35.453 45.0804 35.7649 44.7568 35.6544 44.3804C35.6101 44.1035 35.285 43.9511 35.0291 44.0017C34.8123 44.0688 34.6215 44.1907 34.4311 44.3124C34.3346 44.3741 34.2382 44.4357 34.1386 44.4901C33.6432 44.7926 33.0482 44.8758 32.4766 44.8642C31.8505 44.8572 31.2252 44.5756 30.8231 44.0919C30.4311 43.6392 30.2678 43.0388 30.2305 42.4524C31.1803 42.4361 32.1304 42.4383 33.0805 42.4405C33.6279 42.4417 34.1754 42.443 34.7227 42.4407C34.8063 42.4378 34.8913 42.4396 34.9766 42.4414C35.2086 42.4463 35.443 42.4512 35.6591 42.3614C35.873 42.2828 35.9616 42.0355 35.9702 41.8255C36.0052 40.7655 35.6529 39.6797 34.9412 38.8849C34.3937 38.2674 33.6059 37.8614 32.7783 37.8132ZM33.9071 39.5297C33.0741 38.6881 31.5124 38.8173 30.8093 39.763C30.4251 40.2281 30.2727 40.8363 30.2354 41.4274C30.6961 41.4269 31.1569 41.4281 31.6177 41.4293C32.6229 41.4319 33.6282 41.4345 34.6335 41.4196C34.607 40.7359 34.3994 40.0251 33.9071 39.5297Z" fill="#4C4C4C"/>
<path fill-rule="evenodd" clip-rule="evenodd" d="M45.3623 38.2541C44.5674 37.782 43.5836 37.6933 42.6946 37.908C41.5086 38.188 40.6095 39.2021 40.2766 40.347C39.922 41.5742 39.9694 42.9446 40.5169 44.1089C40.9097 44.9605 41.6672 45.6449 42.5741 45.9016C43.5081 46.1746 44.5627 46.075 45.4012 45.5679C46.1003 45.1542 46.5903 44.455 46.8711 43.7029C47.2304 42.6615 47.2545 41.5128 46.966 40.452C46.7155 39.563 46.1719 38.7254 45.3623 38.2541ZM44.761 39.3385C44.2796 38.9831 43.6348 38.889 43.0624 39.0437C42.5538 39.1822 42.1221 39.5415 41.8631 39.9972C41.4517 40.7112 41.363 41.5644 41.426 42.3732C41.489 43.0491 41.6897 43.7483 42.1657 44.253C42.7513 44.8908 43.7849 45.0627 44.5409 44.6349C45.0145 44.3915 45.3474 43.9396 45.5442 43.4543C45.8366 42.6579 45.877 41.7775 45.7083 40.95C45.5768 40.3309 45.2797 39.7204 44.761 39.3385Z" fill="#4C4C4C"/>
<path fill-rule="evenodd" clip-rule="evenodd" d="M84.3467 37.9344C84.1002 37.7594 83.7253 37.743 83.4811 37.925C83.2184 38.1424 83.2247 38.4766 83.2307 38.7963C83.2326 38.8987 83.2345 38.9996 83.2275 39.0948C82.9553 38.6623 82.5789 38.289 82.1185 38.0619C81.3509 37.6855 80.4261 37.7329 79.6476 38.0526C78.8045 38.4002 78.1683 39.1399 77.8386 39.979C77.4723 40.903 77.4108 41.9327 77.5695 42.908C77.7468 43.9541 78.2834 44.9861 79.1996 45.5632C80.0676 46.1014 81.2186 46.2282 82.1457 45.767C82.5983 45.5438 82.9476 45.1736 83.2307 44.7629C83.235 44.8524 83.2332 44.9432 83.2314 45.0342C83.2272 45.2524 83.2228 45.4717 83.303 45.6775C83.436 46.04 83.9228 46.131 84.2409 45.9676C84.4851 45.858 84.5777 45.5694 84.5777 45.3198C84.5791 44.2853 84.5788 43.251 84.5784 42.2168C84.5779 40.9946 84.5775 39.7725 84.58 38.5503C84.5894 38.3248 84.5131 38.0907 84.3467 37.9344ZM82.1777 39.543C81.7041 39.0569 80.9574 38.8532 80.3034 39.0344C79.7862 39.1643 79.3351 39.5158 79.0668 39.9739C78.6608 40.6396 78.5682 41.4446 78.5986 42.2099C78.6468 42.9557 78.8513 43.7389 79.388 44.2865C79.9441 44.8838 80.8906 45.0346 81.6248 44.6994C82.03 44.5182 82.3473 44.1799 82.5682 43.8004C82.978 43.0366 83.0628 42.1352 82.9586 41.2859C82.8676 40.6505 82.6553 39.9949 82.1777 39.543Z" fill="#4C4C4C"/>
</svg>
