<svg width="161" height="37" viewBox="0 0 161 37" fill="none" xmlns="http://www.w3.org/2000/svg">
<g clip-path="url(#clip0_743_808)">
<path d="M23.4421 5.27635C20.6959 2.95159 17.9749 1.05773 14.4412 0.776262C11.7551 0.562551 10.3458 2.77958 9.07513 5.06959C6.95069 8.89467 0.134343 23.5478 0.927083 28.7958C2.62681 40.0313 23.7918 36.8169 31.5623 31.7C37.5815 27.7368 34.353 14.5146 23.4421 5.27635ZM30.5393 24.6641C30.4966 25.1358 30.4294 25.6015 30.3378 26.0549C29.6436 29.4752 26.6419 31.2205 23.6697 32.0727C20.8468 32.8824 17.9767 33.5201 15.0743 33.9171C12.6708 34.2463 10.2472 34.1707 7.84808 33.0535C2.27448 30.4603 4.55415 23.8718 6.05155 20.2561C7.99634 15.5597 9.58008 10.8094 11.8693 6.00175C12.6429 4.37807 14.7002 3.11752 16.6537 3.85943C18.9011 4.71341 20.9488 6.17463 22.6128 7.92428C24.9264 10.3585 26.9802 12.6711 28.482 15.7404C29.6968 18.2241 30.8027 21.7773 30.5393 24.6641ZM26.7526 19.5194C26.0462 17.7046 22.325 9.42286 18.0691 6.99386C15.2391 5.37799 13.4531 9.22653 12.7458 10.7851C11.5039 13.5268 10.3754 16.3233 9.18065 19.0894C8.01552 21.7885 6.9472 25.0924 7.63965 28.1677C8.11843 30.2909 10.1618 31.3968 12.015 31.535C14.7124 31.7374 22.0537 29.9565 23.3174 29.384C26.2887 28.04 27.1442 26.4224 27.6099 24.5737C27.9962 23.043 27.3535 21.0605 26.7526 19.5194ZM19.8909 27.9366C18.2819 28.4848 13.9301 29.4708 11.1856 28.6203C8.87542 27.9045 10.0283 23.8231 10.6187 22.11C11.4211 19.7783 15.1013 10.9414 15.7894 10.2855C17.5049 8.64968 19.4095 11.4592 20.6261 13.2062C29.0445 24.168 22.291 27.1183 19.8909 27.9366ZM50.7938 26.5962H47.9648L47.0831 23.8979H47.0665C46.9165 24.4373 46.3174 24.6563 45.4688 24.6563H43.0051L42.3894 26.5953H39.6432L43.5545 14.7908H46.8833L50.7938 26.5962ZM43.804 22.1274H46.5162L45.1679 17.8271H45.1514L43.804 22.1274ZM59.9422 26.5962H57.2788V21.7052C57.2788 20.8616 56.7791 20.356 56.0308 20.356C55.0323 20.356 54.6163 21.1144 54.6163 22.3802V26.5962H51.9537V18.1642H54.6163V19.1762H54.6328C55.1988 18.417 56.0308 17.9956 57.0294 17.9956C58.9428 17.9956 59.9422 19.1762 59.9422 21.3516V26.5962ZM67.8469 18.1642H70.5095V25.7526C70.5095 28.2824 68.7618 30.1372 65.8498 30.1372C64.0193 30.1372 62.7704 29.6316 61.8556 28.9565L63.271 27.1861C63.7367 27.4727 64.519 27.8611 65.6841 27.8611C67.1318 27.8611 67.8478 27.0001 67.8478 25.7526V25.4156H67.8312C67.3481 26.174 66.4332 26.5962 65.2681 26.5962C62.7713 26.5962 61.2739 24.7414 61.2739 22.2959C61.2739 19.8504 62.7713 17.9956 65.2681 17.9956C66.4332 17.9956 67.3481 18.417 67.8312 19.1762H67.8478L67.8469 18.1642ZM67.8469 22.2959C67.8469 21.1326 67.0481 20.3569 65.9335 20.3569C64.8181 20.3569 64.0193 21.1326 64.0193 22.2959C64.0193 23.46 64.8181 24.2349 65.9335 24.2349C67.0481 24.2349 67.8469 23.4591 67.8469 22.2959ZM74.9118 26.5962H72.2493V14.7917H74.9118V26.5962ZM76.2426 22.3802C76.2426 19.8504 78.0732 17.9956 80.7366 17.9956C83.3991 17.9956 85.2305 19.8504 85.2305 22.3802C85.2305 24.9099 83.4 26.7647 80.7366 26.7647C78.0741 26.7647 76.2426 24.9099 76.2426 22.3802ZM82.4843 22.3802C82.4843 21.2169 81.852 20.356 80.7366 20.356C79.6212 20.356 78.9889 21.216 78.9889 22.3802C78.9889 23.5443 79.6212 24.4035 80.7366 24.4035C81.852 24.4035 82.4843 23.5443 82.4843 22.3802ZM96.8801 26.5962H94.051L93.1684 23.8979H93.1518C93.0018 24.4373 92.4027 24.6563 91.5541 24.6563H89.0913L88.4756 26.5953H85.7294L89.6407 14.7908H92.9687L96.8801 26.5962ZM89.8902 22.1274H92.6024L91.2541 17.8271H91.2376L89.8902 22.1274ZM111.027 21.3516V26.5962H108.364V21.7052C108.364 20.8616 107.864 20.356 107.282 20.356C106.284 20.356 105.868 21.1144 105.868 22.3802V26.5962H103.205V21.7052C103.205 20.8616 102.706 20.356 102.123 20.356C101.125 20.356 100.709 21.1144 100.709 22.3802V26.5962H98.0461V18.1642H100.709V19.1762H100.725C101.207 18.417 102.039 17.9956 103.038 17.9956C104.22 17.9956 105.052 18.4847 105.501 19.429H105.534C106.034 18.6706 106.783 17.9956 108.114 17.9956C110.112 17.9956 111.027 19.1762 111.027 21.3516ZM121.063 23.308H115.222C115.472 24.1176 116.104 24.5729 117.02 24.5729C117.851 24.5729 118.384 24.1845 118.683 23.7293L120.681 25.0785C119.931 26.0054 118.766 26.7647 116.937 26.7647C114.19 26.7647 112.36 24.9099 112.36 22.3802C112.36 19.8504 114.19 17.9956 116.853 17.9956C119.35 17.9956 121.097 19.6818 121.097 22.5148C121.097 22.7676 121.097 23.0378 121.063 23.308ZM118.434 21.6217C118.351 20.7782 117.934 20.1883 116.853 20.1883C115.987 20.1883 115.405 20.7113 115.189 21.6217H118.434ZM127.588 20.6939C125.341 20.6939 125.091 21.1995 125.091 22.7172V26.5962H122.428V18.1642H125.091V19.5133H125.108C125.591 18.5012 126.256 17.9956 127.588 17.9956V20.6939ZM128.42 15.8038C128.42 14.9602 129.085 14.2861 129.918 14.2861C130.75 14.2861 131.416 14.9611 131.416 15.8038C131.416 16.6473 130.75 17.3215 129.918 17.3215C129.086 17.3206 128.42 16.6465 128.42 15.8038ZM131.25 26.5962H128.586V18.1642H131.25V26.5962ZM138.738 23.3922L140.902 24.6736C140.087 25.9724 138.738 26.7647 136.991 26.7647C134.411 26.7647 132.58 24.9099 132.58 22.3802C132.58 19.8504 134.411 17.9956 137.073 17.9956C138.737 17.9956 140.086 18.7879 140.901 20.0867L138.737 21.3681C138.321 20.6601 137.772 20.356 137.073 20.356C135.959 20.356 135.326 21.216 135.326 22.3802C135.326 23.5443 135.958 24.4035 137.073 24.4035C137.773 24.4035 138.322 24.1003 138.738 23.3922ZM148.142 19.1762V18.1642H150.805V26.5962H148.142V25.5841H148.126C147.643 26.3425 146.728 26.7647 145.563 26.7647C143.066 26.7647 141.568 24.9099 141.568 22.3802C141.568 19.8504 143.067 17.9956 145.563 17.9956C146.728 17.9956 147.643 18.417 148.126 19.1762H148.142ZM148.142 22.3802C148.142 21.1326 147.343 20.356 146.229 20.356C145.113 20.356 144.315 21.1318 144.315 22.3802C144.315 23.6285 145.113 24.4035 146.229 24.4035C147.343 24.4035 148.142 23.6277 148.142 22.3802ZM160.458 26.5962H157.795V21.7052C157.795 20.8616 157.296 20.356 156.547 20.356C155.548 20.356 155.132 21.1144 155.132 22.3802V26.5962H152.47V18.1642H155.132V19.1762H155.15C155.715 18.417 156.548 17.9956 157.546 17.9956C159.46 17.9956 160.459 19.1762 160.459 21.3516V26.5962H160.458Z" fill="#154367"/>
<path d="M22.0892 20.4168C21.3785 18.854 20.1759 16.7924 18.6165 15.3781C18.0148 14.8343 16.2872 14.194 15.7595 15.6535C14.8072 18.1972 14.0624 20.8269 13.3517 23.3706C13.1554 24.0725 12.8354 25.8352 13.574 26.3017C15.2677 27.3729 20.0625 24.1985 21.5451 23.2429C22.391 22.7008 22.5 21.3203 22.0892 20.4168ZM19.834 21.8841C18.7683 22.8398 16.9997 24.0221 15.77 23.9726C14.5037 23.9222 16.2819 18.3214 17.3127 17.4701C18.1456 16.782 19.9596 19.946 20.0668 20.2796C20.2421 20.8252 20.2203 21.5367 19.834 21.8841Z" fill="#AC3121"/>
</g>
<defs>
<clipPath id="clip0_743_808">
<rect width="160.467" height="35.6185" fill="white" transform="translate(0.0522461 0.762451)"/>
</clipPath>
</defs>
</svg>
