<svg width="844" height="700" viewBox="0 0 844 700" fill="none" xmlns="http://www.w3.org/2000/svg">
<path d="M555.259 377.665L319.65 613.275L403.279 698.512H599.487L842.735 455.263L765.137 377.665H555.259Z" stroke="url(#paint0_linear_283_4256)"/>
<path d="M63.8635 377.665L299.473 613.275L215.844 698.512H19.6364L-223.612 455.263L-146.014 377.665H63.8635Z" stroke="url(#paint1_linear_283_4256)"/>
<path d="M555.259 321.51L319.65 85.9003L403.279 0.662598H599.487L842.735 243.911L765.137 321.51H555.259Z" stroke="url(#paint2_linear_283_4256)"/>
<path d="M63.8635 321.51L299.473 85.9003L215.844 0.662598H19.6364L-223.612 243.911L-146.014 321.51H63.8635Z" stroke="url(#paint3_linear_283_4256)"/>
<defs>
<linearGradient id="paint0_linear_283_4256" x1="495.517" y1="38.0429" x2="54.4496" y2="610.881" gradientUnits="userSpaceOnUse">
<stop stop-color="#F06124"/>
<stop offset="1" stop-color="#F06124" stop-opacity="0"/>
</linearGradient>
<linearGradient id="paint1_linear_283_4256" x1="495.517" y1="38.0429" x2="54.4496" y2="610.881" gradientUnits="userSpaceOnUse">
<stop stop-color="#F06124"/>
<stop offset="1" stop-color="#F06124" stop-opacity="0"/>
</linearGradient>
<linearGradient id="paint2_linear_283_4256" x1="495.517" y1="38.0429" x2="54.4496" y2="610.881" gradientUnits="userSpaceOnUse">
<stop stop-color="#F06124"/>
<stop offset="1" stop-color="#F06124" stop-opacity="0"/>
</linearGradient>
<linearGradient id="paint3_linear_283_4256" x1="495.517" y1="38.0429" x2="54.4496" y2="610.881" gradientUnits="userSpaceOnUse">
<stop stop-color="#F06124"/>
<stop offset="1" stop-color="#F06124" stop-opacity="0"/>
</linearGradient>
</defs>
</svg>
