<svg width="160" height="27" viewBox="0 0 160 27" fill="none" xmlns="http://www.w3.org/2000/svg">
<path d="M60.3435 2.87766C60.3435 3.12146 60.2216 3.24136 59.9558 3.24136H49.4846C49.3387 3.24136 49.2168 3.28932 49.1209 3.38724L47.9299 4.52828C47.8559 4.60222 47.808 4.72212 47.808 4.868V12.9093C47.808 13.0551 47.832 13.201 47.9299 13.273L49.5325 14.7797C49.6544 14.8776 49.7763 14.9256 49.9462 14.9256H59.9578C60.2256 14.9256 60.3455 15.0475 60.3455 15.3133V17.0878C60.3455 17.3555 60.2236 17.4774 59.9578 17.4774H47.2744C47.0306 17.4774 46.8128 17.3795 46.643 17.2097L43.4117 14.1722C43.2658 14.0263 43.1938 13.8565 43.1938 13.6387V3.74893C43.1938 3.53111 43.2678 3.36126 43.4117 3.21538L45.7697 0.955275C45.9396 0.785417 46.1574 0.6875 46.4012 0.6875H59.9598C60.2276 0.6875 60.3475 0.809394 60.3475 1.07717V2.87566L60.3435 2.87766Z" fill="white"/>
<path d="M82.0393 3.21738C82.1852 3.36325 82.2331 3.55709 82.2331 3.75093V7.63767C82.2331 7.95341 82.1352 8.22119 81.9174 8.439L79.8771 10.3594L82.5749 16.0686C82.6968 16.3364 82.7447 16.4823 82.7447 16.772V17.0398C82.7447 17.3076 82.7207 17.4774 82.357 17.4774H78.6881C78.5182 17.4774 78.3724 17.3795 78.2984 17.2097L75.8445 11.4265H67.1697V17.0878C67.1697 17.3555 67.0478 17.4774 66.7801 17.4774H62.9653C62.7235 17.4774 62.6016 17.3555 62.6016 17.0878V1.39291C62.6016 0.931296 62.8214 0.6875 63.283 0.6875H78.9539C79.2456 0.6875 79.4874 0.785416 79.6833 0.979254L82.0393 3.21538V3.21738ZM76.378 3.38724C76.2801 3.28932 76.1602 3.24136 75.9904 3.24136H67.5834C67.3156 3.24136 67.1697 3.38724 67.1697 3.70297V8.97456H76.0383L77.4951 7.61369C77.617 7.4918 77.665 7.39388 77.665 7.27398V4.84402C77.665 4.69814 77.617 4.57624 77.4951 4.45634L76.378 3.38724Z" fill="white"/>
<path d="M89.4251 17.0917C89.4251 17.3594 89.2793 17.4813 89.0355 17.4813H85.1727C84.9289 17.4813 84.783 17.3594 84.783 17.0917V1.08108C84.783 0.83728 84.9289 0.691406 85.1727 0.691406H89.0355C89.2793 0.691406 89.4251 0.83728 89.4251 1.08108V17.0917Z" fill="white"/>
<path d="M110.489 2.87762C110.489 3.12142 110.368 3.24132 110.1 3.24132H98.1218C97.904 3.24132 97.7342 3.31525 97.5883 3.46113L96.737 4.28644C96.5911 4.40834 96.5192 4.5782 96.5192 4.77203V6.15688C96.5192 6.27878 96.5671 6.37469 96.6651 6.47261L97.6362 7.41982C97.7342 7.51774 97.8301 7.5657 97.952 7.5657H107.842C108.181 7.5657 108.473 7.6876 108.691 7.90541L110.465 9.79982C110.685 10.0436 110.781 10.2854 110.781 10.5532V14.32C110.781 14.5878 110.685 14.8056 110.489 14.9995L108.253 17.1377C107.986 17.3575 107.694 17.4774 107.378 17.4774H92.0709C91.8291 17.4774 91.7072 17.3555 91.7072 17.0877V15.3132C91.7072 15.0454 91.8291 14.9255 92.0709 14.9255H104.73C104.948 14.9255 105.118 14.8776 105.288 14.7557L106.113 13.9044C106.235 13.7825 106.283 13.6606 106.283 13.5167V11.6223C106.259 11.5504 106.209 11.5004 106.137 11.4285L105.19 10.5052C105.068 10.3833 104.898 10.3354 104.728 10.3114H94.5968C94.4269 10.3114 94.2571 10.2634 94.1112 10.1176L92.2887 8.10125C92.0209 7.83347 91.973 7.66361 91.973 7.29991V3.70293C91.973 3.33924 92.1668 3.16938 92.4346 2.94956L94.5248 0.981207C94.7187 0.787369 94.9625 0.689453 95.2542 0.689453H110.1C110.368 0.689453 110.489 0.811353 110.489 1.07913V2.87762Z" fill="white"/>
<path d="M130.315 2.87753C130.315 3.12132 130.193 3.24123 129.951 3.24123H119.406C119.138 3.24123 119.018 3.28918 118.847 3.46104L117.56 4.67602C117.486 4.74796 117.438 4.86986 117.438 4.99176V12.8871C117.438 13.057 117.486 13.1789 117.608 13.3008L119.186 14.7836C119.284 14.8815 119.404 14.9294 119.55 14.9294H126.814C127.082 14.9294 127.204 14.7836 127.204 14.4678V8.51481C127.204 8.24703 127.325 8.12713 127.567 8.12713H130.555C130.822 8.12713 130.944 8.24903 130.944 8.51481V16.7519C130.944 17.2375 130.701 17.4813 130.239 17.4813H116.924C116.682 17.4813 116.486 17.4094 116.317 17.2635L113.035 14.1781C112.889 14.0322 112.818 13.8623 112.818 13.6445V3.75479C112.818 3.53697 112.891 3.36712 113.035 3.22124L115.393 0.961134C115.563 0.791277 115.781 0.693359 116.025 0.693359H129.947C130.189 0.693359 130.311 0.815254 130.311 1.08303V2.88152L130.315 2.87753Z" fill="white"/>
<path d="M152.788 14.1262C152.788 14.32 152.716 14.4899 152.57 14.6118L149.946 17.1377C149.705 17.3575 149.389 17.4774 149.047 17.4774H136.899C136.56 17.4774 136.244 17.3555 136 17.1377L133.376 14.6118C133.23 14.4899 133.159 14.32 133.159 14.1262V1.07913C133.159 0.835333 133.28 0.689453 133.546 0.689453H137.409C137.651 0.689453 137.773 0.835333 137.773 1.07913V13.227C137.773 13.3728 137.845 13.4707 137.919 13.5427L139.303 14.8056C139.401 14.9035 139.473 14.9275 139.619 14.9275H146.397C146.543 14.9275 146.615 14.9035 146.713 14.8056L148.098 13.5427C148.17 13.4707 148.244 13.3728 148.244 13.227V1.07913C148.244 0.835333 148.366 0.689453 148.608 0.689453H152.398C152.666 0.689453 152.786 0.835333 152.786 1.07913V14.1262H152.788Z" fill="white"/>
<path d="M159.954 17.0917C159.954 17.3594 159.808 17.4813 159.564 17.4813H155.702C155.458 17.4813 155.312 17.3594 155.312 17.0917V1.08108C155.312 0.83728 155.458 0.691406 155.702 0.691406H159.564C159.808 0.691406 159.954 0.83728 159.954 1.08108V17.0917Z" fill="white"/>
<path d="M26.8195 13.8809H33.8277L36.5314 16.8044L28.1984 24.9716H21.5779L18.8722 22.1579L26.8195 13.8809Z" fill="white"/>
<path d="M33.8277 11.8945H27.1513L18.8722 3.45158L21.6319 0.691895H28.2543L36.5314 8.91501L33.8277 11.8945Z" fill="white"/>
<path d="M9.71187 13.8809H2.70374L0 16.8044L8.33303 24.9716H14.9555L17.6592 22.1579L9.71187 13.8809Z" fill="white"/>
<path d="M2.70374 11.896H9.38215L17.6592 3.45305L14.8995 0.693359H8.27707L0 8.91647L2.70374 11.896Z" fill="white"/>
<path d="M93.4857 19.8911H94.2111L96.1135 24.8749H95.4221L93.7035 20.1649H93.9153L92.1968 24.8749H91.5813L93.4837 19.8911H93.4857ZM92.4126 23.0864H95.1363V23.592H92.4126V23.0864Z" fill="white"/>
<path d="M96.8809 19.8911H98.7573C99.131 19.8911 99.4507 19.9491 99.7165 20.063C99.9803 20.1769 100.182 20.3407 100.318 20.5566C100.456 20.7704 100.524 21.0282 100.524 21.3299C100.524 21.6317 100.448 21.8695 100.298 22.0853C100.148 22.3011 99.9403 22.467 99.6745 22.5809C99.4107 22.6948 99.113 22.7527 98.7853 22.7527H97.2106V22.2471H98.7373C99.085 22.2471 99.3588 22.1652 99.5626 22.0033C99.7664 21.8415 99.8664 21.6157 99.8664 21.3299C99.8664 21.0442 99.7684 20.8064 99.5726 20.6485C99.3768 20.4906 99.089 20.4127 98.7093 20.4127H97.2925L97.5383 20.2288V24.8769H96.8809V19.8931V19.8911ZM98.6534 22.369L99.3028 22.3151L100.596 24.8749H99.8843L98.6514 22.369H98.6534Z" fill="white"/>
<path d="M100.947 19.8911H104.74V20.4187H100.947V19.8911ZM102.514 20.1449H103.172V24.8749H102.514V20.1449Z" fill="white"/>
<path d="M105.506 19.8911H108.757V20.4187H105.923L106.163 20.2069V24.5592L105.923 24.3474H108.825V24.8749H105.506V19.8911ZM105.821 22.0813H108.553V22.5949H105.821V22.0813Z" fill="white"/>
<path d="M109.776 19.8911H112.945V20.4187H110.194L110.434 20.2069V24.8749H109.776V19.8911ZM110.072 22.1832H112.742V22.6968H110.072V22.1832Z" fill="white"/>
<path d="M114.808 19.8911H115.533L117.436 24.8749H116.744L115.026 20.1649H115.237L113.519 24.8749H112.903L114.806 19.8911H114.808ZM113.733 23.0864H116.456V23.592H113.733V23.0864Z" fill="white"/>
<path d="M117.06 19.8911H120.853V20.4187H117.06V19.8911ZM118.627 20.1449H119.284V24.8749H118.627V20.1449Z" fill="white"/>
<path d="M122.29 24.6265C121.902 24.4067 121.598 24.1029 121.378 23.7133C121.159 23.3236 121.051 22.88 121.051 22.3824C121.051 21.8848 121.161 21.4412 121.378 21.0515C121.598 20.6618 121.9 20.3561 122.29 20.1383C122.677 19.9184 123.117 19.8105 123.611 19.8105C124.104 19.8105 124.538 19.9204 124.927 20.1383C125.317 20.3581 125.623 20.6618 125.841 21.0515C126.06 21.4412 126.168 21.8848 126.168 22.3824C126.168 22.88 126.058 23.3236 125.841 23.7133C125.621 24.1029 125.317 24.4087 124.927 24.6265C124.538 24.8463 124.098 24.9542 123.611 24.9542C123.123 24.9542 122.677 24.8443 122.29 24.6265ZM124.568 24.1649C124.851 23.989 125.071 23.7472 125.231 23.4355C125.391 23.1258 125.471 22.7741 125.471 22.3824C125.471 21.9907 125.391 21.639 125.231 21.3293C125.071 21.0195 124.849 20.7757 124.568 20.5999C124.284 20.424 123.966 20.3361 123.609 20.3361C123.251 20.3361 122.927 20.424 122.643 20.5999C122.36 20.7757 122.14 21.0195 121.982 21.3293C121.824 21.639 121.746 21.9907 121.746 22.3824C121.746 22.7741 121.824 23.1258 121.982 23.4355C122.14 23.7452 122.36 23.989 122.643 24.1649C122.927 24.3407 123.249 24.4287 123.609 24.4287C123.968 24.4287 124.284 24.3407 124.568 24.1649Z" fill="white"/>
<path d="M127.593 24.7531C127.269 24.6192 127.016 24.4453 126.834 24.2355L127.012 23.7699C127.185 23.9617 127.417 24.1196 127.707 24.2415C127.997 24.3654 128.299 24.4254 128.614 24.4254C128.842 24.4254 129.048 24.3894 129.23 24.3154C129.412 24.2435 129.555 24.1396 129.661 24.0037C129.767 23.8698 129.819 23.708 129.819 23.5221C129.819 23.3023 129.733 23.1264 129.559 22.9926C129.386 22.8587 129.104 22.7448 128.71 22.6528L128.532 22.6109C128.145 22.5189 127.835 22.415 127.605 22.2991C127.375 22.1832 127.205 22.0394 127.1 21.8715C126.992 21.7036 126.94 21.4978 126.94 21.256C126.94 20.9463 127.016 20.6825 127.165 20.4647C127.315 20.2488 127.521 20.083 127.781 19.9711C128.041 19.8592 128.338 19.8032 128.67 19.8032C129.026 19.8032 129.35 19.8632 129.641 19.9851C129.933 20.107 130.169 20.2668 130.347 20.4667L130.175 20.9323C130.005 20.7444 129.791 20.5986 129.527 20.4906C129.266 20.3827 128.992 20.3308 128.71 20.3308C128.496 20.3308 128.305 20.3648 128.135 20.4307C127.965 20.4966 127.833 20.5946 127.737 20.7225C127.641 20.8504 127.593 21.0062 127.593 21.1881C127.593 21.3379 127.631 21.4638 127.709 21.5637C127.787 21.6637 127.905 21.7496 128.065 21.8195C128.225 21.8895 128.436 21.9554 128.702 22.0154L128.888 22.0573C129.454 22.1852 129.859 22.3591 130.107 22.5769C130.353 22.7967 130.477 23.0905 130.477 23.4602C130.477 23.7699 130.397 24.0377 130.237 24.2635C130.077 24.4893 129.859 24.6612 129.583 24.7771C129.308 24.893 128.996 24.9509 128.648 24.9509C128.269 24.9509 127.919 24.883 127.593 24.7491V24.7531Z" fill="white"/>
<path d="M133.007 19.8911H136.258V20.4187H133.424L133.664 20.2069V24.5592L133.424 24.3474H136.326V24.8749H133.007V19.8911ZM133.322 22.0813H136.054V22.5949H133.322V22.0813Z" fill="white"/>
<path d="M137.279 19.8911H138.134L140.099 24.3614H139.681L141.645 19.8911H142.467V24.8749H141.823V20.2548L142.029 20.2488L140.011 24.8749H139.675L137.657 20.2488L137.869 20.2548V24.8749H137.279V19.8911Z" fill="white"/>
<path d="M146.505 19.8911H147.231L149.133 24.8749H148.442L146.723 20.1649H146.935L145.216 24.8749H144.601L146.503 19.8911H146.505ZM145.43 23.0864H148.154V23.592H145.43V23.0864Z" fill="white"/>
<path d="M150.66 24.6266C150.28 24.4067 149.986 24.101 149.773 23.7093C149.561 23.3176 149.455 22.874 149.455 22.3804C149.455 21.8869 149.561 21.4452 149.773 21.0535C149.984 20.6619 150.28 20.3561 150.66 20.1363C151.037 19.9165 151.467 19.8086 151.947 19.8086C152.302 19.8086 152.63 19.8685 152.93 19.9904C153.23 20.1123 153.489 20.2822 153.709 20.504C153.931 20.7258 154.105 20.9896 154.233 21.2953L153.657 21.4672C153.511 21.1115 153.292 20.8317 152.996 20.6279C152.702 20.4241 152.36 20.3242 151.973 20.3242C151.621 20.3242 151.305 20.4101 151.025 20.5799C150.746 20.7518 150.524 20.9876 150.364 21.2893C150.204 21.5911 150.124 21.9328 150.124 22.3165C150.124 22.7002 150.204 23.0479 150.368 23.3596C150.53 23.6714 150.758 23.9191 151.053 24.099C151.347 24.2788 151.689 24.3688 152.077 24.3688C152.464 24.3688 152.848 24.2729 153.176 24.077C153.501 23.8832 153.761 23.6214 153.953 23.2937L154.309 23.5335C154.099 23.9711 153.785 24.3188 153.368 24.5746C152.95 24.8304 152.478 24.9583 151.955 24.9583C151.471 24.9583 151.039 24.8484 150.662 24.6306L150.66 24.6266ZM151.653 26.2772C151.553 26.2552 151.475 26.2292 151.421 26.2012L151.511 25.9275C151.565 25.9594 151.625 25.9814 151.689 25.9954C151.753 26.0094 151.819 26.0154 151.887 26.0154C151.993 26.0154 152.075 25.9894 152.133 25.9375C152.193 25.8855 152.222 25.8176 152.222 25.7356C152.222 25.6537 152.195 25.5878 152.141 25.5378C152.087 25.4878 152.013 25.4579 151.921 25.4479L151.653 25.4199L151.845 24.8723H152.153L151.981 25.352L151.843 25.236L152.049 25.25C152.208 25.26 152.346 25.31 152.462 25.3999C152.578 25.4918 152.636 25.6137 152.636 25.7696C152.636 25.9335 152.572 26.0654 152.444 26.1633C152.316 26.2612 152.151 26.3111 151.945 26.3111C151.849 26.3111 151.751 26.2992 151.651 26.2772H151.653Z" fill="white"/>
<path d="M156.121 24.6265C155.734 24.4067 155.43 24.1029 155.21 23.7133C154.99 23.3236 154.882 22.88 154.882 22.3824C154.882 21.8848 154.992 21.4412 155.21 21.0515C155.43 20.6618 155.732 20.3561 156.121 20.1383C156.509 19.9184 156.949 19.8105 157.442 19.8105C157.936 19.8105 158.369 19.9204 158.759 20.1383C159.149 20.3581 159.454 20.6618 159.672 21.0515C159.892 21.4412 160 21.8848 160 22.3824C160 22.88 159.89 23.3236 159.672 23.7133C159.452 24.1029 159.149 24.4087 158.759 24.6265C158.369 24.8463 157.93 24.9542 157.442 24.9542C156.955 24.9542 156.509 24.8443 156.121 24.6265ZM158.401 24.1649C158.685 23.989 158.905 23.7472 159.065 23.4355C159.225 23.1258 159.305 22.7741 159.305 22.3824C159.305 21.9907 159.225 21.639 159.065 21.3293C158.905 21.0195 158.683 20.7757 158.401 20.5999C158.118 20.424 157.8 20.3361 157.442 20.3361C157.084 20.3361 156.761 20.424 156.477 20.5999C156.193 20.7757 155.973 21.0195 155.816 21.3293C155.658 21.639 155.58 21.9907 155.58 22.3824C155.58 22.7741 155.658 23.1258 155.816 23.4355C155.973 23.7452 156.193 23.989 156.477 24.1649C156.761 24.3407 157.082 24.4287 157.442 24.4287C157.802 24.4287 158.118 24.3407 158.401 24.1649Z" fill="white"/>
</svg>
