<svg width="160" height="27" viewBox="0 0 160 27" fill="none" xmlns="http://www.w3.org/2000/svg">
<path d="M60.3435 2.60618C60.3435 2.84998 60.2216 2.96988 59.9558 2.96988H49.4846C49.3387 2.96988 49.2168 3.01783 49.1209 3.11575L47.9299 4.25679C47.8559 4.33073 47.808 4.45063 47.808 4.59651V12.6378C47.808 12.7837 47.832 12.9295 47.9299 13.0015L49.5325 14.5082C49.6544 14.6061 49.7763 14.6541 49.9462 14.6541H59.9578C60.2256 14.6541 60.3455 14.776 60.3455 15.0418V16.8163C60.3455 17.0841 60.2236 17.2059 59.9578 17.2059H47.2744C47.0306 17.2059 46.8128 17.108 46.643 16.9382L43.4117 13.9007C43.2658 13.7548 43.1938 13.585 43.1938 13.3672V3.47745C43.1938 3.25963 43.2678 3.08978 43.4117 2.9439L45.7697 0.683791C45.9396 0.513933 46.1574 0.416016 46.4012 0.416016H59.9598C60.2276 0.416016 60.3475 0.53791 60.3475 0.805686V2.60418L60.3435 2.60618Z" fill="#25262C"/>
<path d="M82.0393 2.94589C82.1852 3.09177 82.2331 3.28561 82.2331 3.47945V7.36619C82.2331 7.68192 82.1352 7.9497 81.9174 8.16752L79.8771 10.0879L82.5749 15.7971C82.6968 16.0649 82.7447 16.2108 82.7447 16.5005V16.7683C82.7447 17.0361 82.7207 17.2059 82.357 17.2059H78.6881C78.5182 17.2059 78.3724 17.108 78.2984 16.9382L75.8445 11.155H67.1697V16.8163C67.1697 17.0841 67.0478 17.2059 66.7801 17.2059H62.9653C62.7235 17.2059 62.6016 17.0841 62.6016 16.8163V1.12142C62.6016 0.659811 62.8214 0.416016 63.283 0.416016H78.9539C79.2456 0.416016 79.4874 0.513932 79.6833 0.70777L82.0393 2.9439V2.94589ZM76.378 3.11575C76.2801 3.01783 76.1602 2.96988 75.9904 2.96988H67.5834C67.3156 2.96988 67.1697 3.11575 67.1697 3.43149V8.70307H76.0383L77.4951 7.34221C77.617 7.22031 77.665 7.12239 77.665 7.00249V4.57253C77.665 4.42665 77.617 4.30476 77.4951 4.18486L76.378 3.11575Z" fill="#25262C"/>
<path d="M89.4251 16.8202C89.4251 17.088 89.2793 17.2099 89.0355 17.2099H85.1727C84.9289 17.2099 84.783 17.088 84.783 16.8202V0.809592C84.783 0.565796 84.9289 0.419922 85.1727 0.419922H89.0355C89.2793 0.419922 89.4251 0.565796 89.4251 0.809592V16.8202Z" fill="#25262C"/>
<path d="M110.489 2.60614C110.489 2.84993 110.368 2.96984 110.1 2.96984H98.1218C97.904 2.96984 97.7342 3.04377 97.5883 3.18965L96.737 4.01496C96.5911 4.13685 96.5192 4.30671 96.5192 4.50055V5.88539C96.5192 6.00729 96.5671 6.10321 96.6651 6.20113L97.6362 7.14834C97.7342 7.24625 97.8301 7.29421 97.952 7.29421H107.842C108.181 7.29421 108.473 7.41611 108.691 7.63393L110.465 9.52834C110.685 9.77213 110.781 10.0139 110.781 10.2817V14.0486C110.781 14.3163 110.685 14.5342 110.489 14.728L108.253 16.8662C107.986 17.086 107.694 17.2059 107.378 17.2059H92.0709C91.8291 17.2059 91.7072 17.084 91.7072 16.8162V15.0417C91.7072 14.774 91.8291 14.6541 92.0709 14.6541H104.73C104.948 14.6541 105.118 14.6061 105.288 14.4842L106.113 13.6329C106.235 13.511 106.283 13.3891 106.283 13.2452V11.3508C106.259 11.2789 106.209 11.2289 106.137 11.157L105.19 10.2338C105.068 10.1119 104.898 10.0639 104.728 10.0399H94.5968C94.4269 10.0399 94.2571 9.99196 94.1112 9.84608L92.2887 7.82976C92.0209 7.56199 91.973 7.39213 91.973 7.02843V3.43145C91.973 3.06775 92.1668 2.89789 92.4346 2.67808L94.5248 0.709723C94.7187 0.515885 94.9625 0.417969 95.2542 0.417969H110.1C110.368 0.417969 110.489 0.539869 110.489 0.807645V2.60614Z" fill="#25262C"/>
<path d="M130.315 2.60604C130.315 2.84984 130.193 2.96974 129.951 2.96974H119.406C119.138 2.96974 119.018 3.0177 118.847 3.18955L117.56 4.40454C117.486 4.47648 117.438 4.59837 117.438 4.72027V12.6157C117.438 12.7855 117.486 12.9074 117.608 13.0293L119.186 14.5121C119.284 14.61 119.404 14.6579 119.55 14.6579H126.814C127.082 14.6579 127.204 14.5121 127.204 14.1963V8.24332C127.204 7.97555 127.325 7.85565 127.567 7.85565H130.555C130.822 7.85565 130.944 7.97754 130.944 8.24332V16.4804C130.944 16.966 130.701 17.2098 130.239 17.2098H116.924C116.682 17.2098 116.486 17.1379 116.317 16.992L113.035 13.9066C112.889 13.7607 112.818 13.5908 112.818 13.373V3.48331C112.818 3.26549 112.891 3.09563 113.035 2.94976L115.393 0.68965C115.563 0.519792 115.781 0.421875 116.025 0.421875H129.947C130.189 0.421875 130.311 0.543769 130.311 0.811545V2.61004L130.315 2.60604Z" fill="#25262C"/>
<path d="M152.788 13.8547C152.788 14.0486 152.716 14.2184 152.57 14.3403L149.946 16.8662C149.705 17.086 149.389 17.2059 149.047 17.2059H136.899C136.56 17.2059 136.244 17.084 136 16.8662L133.376 14.3403C133.23 14.2184 133.159 14.0486 133.159 13.8547V0.807645C133.159 0.563849 133.28 0.417969 133.546 0.417969H137.409C137.651 0.417969 137.773 0.563849 137.773 0.807645V12.9555C137.773 13.1014 137.845 13.1993 137.919 13.2712L139.303 14.5341C139.401 14.6321 139.473 14.6561 139.619 14.6561H146.397C146.543 14.6561 146.615 14.6321 146.713 14.5341L148.098 13.2712C148.17 13.1993 148.244 13.1014 148.244 12.9555V0.807645C148.244 0.563849 148.366 0.417969 148.608 0.417969H152.398C152.666 0.417969 152.786 0.563849 152.786 0.807645V13.8547H152.788Z" fill="#25262C"/>
<path d="M159.954 16.8202C159.954 17.088 159.808 17.2099 159.564 17.2099H155.702C155.458 17.2099 155.312 17.088 155.312 16.8202V0.809592C155.312 0.565796 155.458 0.419922 155.702 0.419922H159.564C159.808 0.419922 159.954 0.565796 159.954 0.809592V16.8202Z" fill="#25262C"/>
<path d="M26.8195 13.6094H33.8277L36.5314 16.5329L28.1984 24.7001H21.5779L18.8722 21.8865L26.8195 13.6094Z" fill="#25262C"/>
<path d="M33.8277 11.623H27.1513L18.8722 3.1801L21.6319 0.42041H28.2543L36.5314 8.64352L33.8277 11.623Z" fill="#25262C"/>
<path d="M9.71187 13.6094H2.70374L0 16.5329L8.33303 24.7001H14.9555L17.6592 21.8865L9.71187 13.6094Z" fill="#25262C"/>
<path d="M2.70374 11.6245H9.38215L17.6592 3.18156L14.8995 0.421875H8.27707L0 8.64499L2.70374 11.6245Z" fill="#25262C"/>
<path d="M93.4857 19.6196H94.2111L96.1135 24.6035H95.4221L93.7035 19.8934H93.9153L92.1968 24.6035H91.5813L93.4837 19.6196H93.4857ZM92.4126 22.815H95.1363V23.3205H92.4126V22.815Z" fill="#25262C"/>
<path d="M96.8809 19.6196H98.7573C99.131 19.6196 99.4507 19.6776 99.7165 19.7915C99.9803 19.9054 100.182 20.0693 100.318 20.2851C100.456 20.4989 100.524 20.7567 100.524 21.0584C100.524 21.3602 100.448 21.598 100.298 21.8138C100.148 22.0296 99.9403 22.1955 99.6745 22.3094C99.4107 22.4233 99.113 22.4812 98.7853 22.4812H97.2106V21.9757H98.7373C99.085 21.9757 99.3588 21.8937 99.5626 21.7319C99.7664 21.57 99.8664 21.3442 99.8664 21.0584C99.8664 20.7727 99.7684 20.5349 99.5726 20.377C99.3768 20.2191 99.089 20.1412 98.7093 20.1412H97.2925L97.5383 19.9573V24.6055H96.8809V19.6216V19.6196ZM98.6534 22.0976L99.3028 22.0436L100.596 24.6035H99.8843L98.6514 22.0976H98.6534Z" fill="#25262C"/>
<path d="M100.947 19.6196H104.74V20.1472H100.947V19.6196ZM102.514 19.8734H103.172V24.6035H102.514V19.8734Z" fill="#25262C"/>
<path d="M105.506 19.6196H108.757V20.1472H105.923L106.163 19.9354V24.2877L105.923 24.0759H108.825V24.6035H105.506V19.6196ZM105.821 21.8098H108.553V22.3234H105.821V21.8098Z" fill="#25262C"/>
<path d="M109.776 19.6196H112.945V20.1472H110.194L110.434 19.9354V24.6035H109.776V19.6196ZM110.072 21.9117H112.742V22.4253H110.072V21.9117Z" fill="#25262C"/>
<path d="M114.808 19.6196H115.533L117.436 24.6035H116.744L115.026 19.8934H115.237L113.519 24.6035H112.903L114.806 19.6196H114.808ZM113.733 22.815H116.456V23.3205H113.733V22.815Z" fill="#25262C"/>
<path d="M117.06 19.6196H120.853V20.1472H117.06V19.6196ZM118.627 19.8734H119.284V24.6035H118.627V19.8734Z" fill="#25262C"/>
<path d="M122.29 24.355C121.902 24.1352 121.598 23.8315 121.378 23.4418C121.159 23.0521 121.051 22.6085 121.051 22.1109C121.051 21.6133 121.161 21.1697 121.378 20.78C121.598 20.3903 121.9 20.0846 122.29 19.8668C122.677 19.647 123.117 19.5391 123.611 19.5391C124.104 19.5391 124.538 19.649 124.927 19.8668C125.317 20.0866 125.623 20.3903 125.841 20.78C126.06 21.1697 126.168 21.6133 126.168 22.1109C126.168 22.6085 126.058 23.0521 125.841 23.4418C125.621 23.8315 125.317 24.1372 124.927 24.355C124.538 24.5748 124.098 24.6828 123.611 24.6828C123.123 24.6828 122.677 24.5728 122.29 24.355ZM124.568 23.8934C124.851 23.7176 125.071 23.4758 125.231 23.164C125.391 22.8543 125.471 22.5026 125.471 22.1109C125.471 21.7192 125.391 21.3675 125.231 21.0578C125.071 20.748 124.849 20.5042 124.568 20.3284C124.284 20.1525 123.966 20.0646 123.609 20.0646C123.251 20.0646 122.927 20.1525 122.643 20.3284C122.36 20.5042 122.14 20.748 121.982 21.0578C121.824 21.3675 121.746 21.7192 121.746 22.1109C121.746 22.5026 121.824 22.8543 121.982 23.164C122.14 23.4738 122.36 23.7176 122.643 23.8934C122.927 24.0693 123.249 24.1572 123.609 24.1572C123.968 24.1572 124.284 24.0693 124.568 23.8934Z" fill="#25262C"/>
<path d="M127.593 24.4816C127.269 24.3477 127.016 24.1739 126.834 23.964L127.012 23.4984C127.185 23.6903 127.417 23.8481 127.707 23.97C127.997 24.0939 128.299 24.1539 128.614 24.1539C128.842 24.1539 129.048 24.1179 129.23 24.044C129.412 23.972 129.555 23.8681 129.661 23.7322C129.767 23.5983 129.819 23.4365 129.819 23.2506C129.819 23.0308 129.733 22.855 129.559 22.7211C129.386 22.5872 129.104 22.4733 128.71 22.3814L128.532 22.3394C128.145 22.2475 127.835 22.1435 127.605 22.0276C127.375 21.9117 127.205 21.7679 127.1 21.6C126.992 21.4322 126.94 21.2263 126.94 20.9845C126.94 20.6748 127.016 20.411 127.165 20.1932C127.315 19.9774 127.521 19.8115 127.781 19.6996C128.041 19.5877 128.338 19.5317 128.67 19.5317C129.026 19.5317 129.35 19.5917 129.641 19.7136C129.933 19.8355 130.169 19.9954 130.347 20.1952L130.175 20.6608C130.005 20.473 129.791 20.3271 129.527 20.2192C129.266 20.1113 128.992 20.0593 128.71 20.0593C128.496 20.0593 128.305 20.0933 128.135 20.1592C127.965 20.2252 127.833 20.3231 127.737 20.451C127.641 20.5789 127.593 20.7347 127.593 20.9166C127.593 21.0665 127.631 21.1923 127.709 21.2923C127.787 21.3922 127.905 21.4781 128.065 21.5481C128.225 21.618 128.436 21.6839 128.702 21.7439L128.888 21.7859C129.454 21.9137 129.859 22.0876 130.107 22.3054C130.353 22.5252 130.477 22.819 130.477 23.1887C130.477 23.4984 130.397 23.7662 130.237 23.992C130.077 24.2178 129.859 24.3897 129.583 24.5056C129.308 24.6215 128.996 24.6794 128.648 24.6794C128.269 24.6794 127.919 24.6115 127.593 24.4776V24.4816Z" fill="#25262C"/>
<path d="M133.007 19.6196H136.258V20.1472H133.424L133.664 19.9354V24.2877L133.424 24.0759H136.326V24.6035H133.007V19.6196ZM133.322 21.8098H136.054V22.3234H133.322V21.8098Z" fill="#25262C"/>
<path d="M137.279 19.6196H138.134L140.099 24.0899H139.681L141.645 19.6196H142.467V24.6035H141.823V19.9833L142.029 19.9773L140.011 24.6035H139.675L137.657 19.9773L137.869 19.9833V24.6035H137.279V19.6196Z" fill="#25262C"/>
<path d="M146.505 19.6196H147.231L149.133 24.6035H148.442L146.723 19.8934H146.935L145.216 24.6035H144.601L146.503 19.6196H146.505ZM145.43 22.815H148.154V23.3205H145.43V22.815Z" fill="#25262C"/>
<path d="M150.66 24.3551C150.28 24.1353 149.986 23.8295 149.773 23.4378C149.561 23.0462 149.455 22.6025 149.455 22.109C149.455 21.6154 149.561 21.1737 149.773 20.7821C149.984 20.3904 150.28 20.0846 150.66 19.8648C151.037 19.645 151.467 19.5371 151.947 19.5371C152.302 19.5371 152.63 19.5971 152.93 19.719C153.23 19.8408 153.489 20.0107 153.709 20.2325C153.931 20.4543 154.105 20.7181 154.233 21.0239L153.657 21.1957C153.511 20.84 153.292 20.5602 152.996 20.3564C152.702 20.1526 152.36 20.0527 151.973 20.0527C151.621 20.0527 151.305 20.1386 151.025 20.3085C150.746 20.4803 150.524 20.7161 150.364 21.0179C150.204 21.3196 150.124 21.6613 150.124 22.045C150.124 22.4287 150.204 22.7764 150.368 23.0881C150.53 23.3999 150.758 23.6477 151.053 23.8275C151.347 24.0074 151.689 24.0973 152.077 24.0973C152.464 24.0973 152.848 24.0014 153.176 23.8055C153.501 23.6117 153.761 23.3499 153.953 23.0222L154.309 23.262C154.099 23.6996 153.785 24.0473 153.368 24.3031C152.95 24.5589 152.478 24.6868 151.955 24.6868C151.471 24.6868 151.039 24.5769 150.662 24.3591L150.66 24.3551ZM151.653 26.0057C151.553 25.9837 151.475 25.9577 151.421 25.9298L151.511 25.656C151.565 25.688 151.625 25.7099 151.689 25.7239C151.753 25.7379 151.819 25.7439 151.887 25.7439C151.993 25.7439 152.075 25.7179 152.133 25.666C152.193 25.614 152.222 25.5461 152.222 25.4641C152.222 25.3822 152.195 25.3163 152.141 25.2663C152.087 25.2164 152.013 25.1864 151.921 25.1764L151.653 25.1484L151.845 24.6009H152.153L151.981 25.0805L151.843 24.9646L152.049 24.9785C152.208 24.9885 152.346 25.0385 152.462 25.1284C152.578 25.2203 152.636 25.3422 152.636 25.4981C152.636 25.662 152.572 25.7939 152.444 25.8918C152.316 25.9897 152.151 26.0397 151.945 26.0397C151.849 26.0397 151.751 26.0277 151.651 26.0057H151.653Z" fill="#25262C"/>
<path d="M156.121 24.355C155.734 24.1352 155.43 23.8315 155.21 23.4418C154.99 23.0521 154.882 22.6085 154.882 22.1109C154.882 21.6133 154.992 21.1697 155.21 20.78C155.43 20.3903 155.732 20.0846 156.121 19.8668C156.509 19.647 156.949 19.5391 157.442 19.5391C157.936 19.5391 158.369 19.649 158.759 19.8668C159.149 20.0866 159.454 20.3903 159.672 20.78C159.892 21.1697 160 21.6133 160 22.1109C160 22.6085 159.89 23.0521 159.672 23.4418C159.452 23.8315 159.149 24.1372 158.759 24.355C158.369 24.5748 157.93 24.6828 157.442 24.6828C156.955 24.6828 156.509 24.5728 156.121 24.355ZM158.401 23.8934C158.685 23.7176 158.905 23.4758 159.065 23.164C159.225 22.8543 159.305 22.5026 159.305 22.1109C159.305 21.7192 159.225 21.3675 159.065 21.0578C158.905 20.748 158.683 20.5042 158.401 20.3284C158.118 20.1525 157.8 20.0646 157.442 20.0646C157.084 20.0646 156.761 20.1525 156.477 20.3284C156.193 20.5042 155.973 20.748 155.816 21.0578C155.658 21.3675 155.58 21.7192 155.58 22.1109C155.58 22.5026 155.658 22.8543 155.816 23.164C155.973 23.4738 156.193 23.7176 156.477 23.8934C156.761 24.0693 157.082 24.1572 157.442 24.1572C157.802 24.1572 158.118 24.0693 158.401 23.8934Z" fill="#25262C"/>
</svg>
