<svg width="129" height="115" viewBox="0 0 129 115" fill="none" xmlns="http://www.w3.org/2000/svg">
<path d="M128.519 0.197998V19.326H125.208C117.361 19.326 111.108 20.6747 106.448 23.3723C101.789 26.0698 98.3557 30.3613 96.1486 36.2469C94.1868 41.8872 93.2059 49.1215 93.2059 57.9498V85.5382L84.3776 68.9851C86.0942 68.0042 88.3013 67.2685 90.9988 66.778C93.9416 66.2876 96.7617 66.0424 99.4592 66.0424C106.326 66.0424 111.966 68.2494 116.38 72.6636C121.04 76.8325 123.369 82.718 123.369 90.3202C123.369 97.4318 121.162 103.317 116.748 107.977C112.579 112.636 106.816 114.966 99.4592 114.966C94.7999 114.966 90.3857 113.862 86.2168 111.655C82.0479 109.448 78.6147 105.524 75.9171 99.8841C73.2196 94.2439 71.8708 86.1512 71.8708 75.6063V67.8816C71.8708 49.9798 74.0779 36.1242 78.492 26.315C82.9062 16.5058 89.1596 9.76198 97.2522 6.08352C105.345 2.15984 114.909 0.197998 125.944 0.197998H128.519ZM57.157 0.197998V19.326H53.8464C45.999 19.326 39.7456 20.6747 35.0863 23.3723C30.4269 26.0698 26.9937 30.3613 24.7866 36.2469C22.8248 41.8872 21.8438 49.1215 21.8438 57.9498V85.5382L13.0155 68.9851C14.7322 68.0042 16.9392 67.2685 19.6368 66.778C22.5795 66.2876 25.3997 66.0424 28.0972 66.0424C34.9637 66.0424 40.604 68.2494 45.0181 72.6636C49.6775 76.8325 52.0072 82.718 52.0072 90.3202C52.0072 97.4318 49.8001 103.317 45.3859 107.977C41.217 112.636 35.4541 114.966 28.0972 114.966C23.4378 114.966 19.0237 113.862 14.8548 111.655C10.6858 109.448 7.25262 105.524 4.55509 99.8841C1.85756 94.2439 0.508789 86.1512 0.508789 75.6063V67.8816C0.508789 49.9798 2.71586 36.1242 7.13001 26.315C11.5442 16.5058 17.7975 9.76198 25.8901 6.08352C33.9827 2.15984 43.5467 0.197998 54.5821 0.197998H57.157Z" fill="#FDE9D7"/>
</svg>
